<?xml version="1.0" encoding="UTF-8" standalone="no"?>
<svg
   xmlns:dc="http://purl.org/dc/elements/1.1/"
   xmlns:cc="http://creativecommons.org/ns#"
   xmlns:rdf="http://www.w3.org/1999/02/22-rdf-syntax-ns#"
   xmlns:svg="http://www.w3.org/2000/svg"
   xmlns="http://www.w3.org/2000/svg"
   xmlns:sodipodi="http://sodipodi.sourceforge.net/DTD/sodipodi-0.dtd"
   xmlns:inkscape="http://www.inkscape.org/namespaces/inkscape"
   sodipodi:docname="header-background.svg"
   inkscape:version="1.0 (4035a4f, 2020-05-01)"
   inkscape:export-ydpi="96"
   inkscape:export-xdpi="96"
   inkscape:export-filename="/Users/shandiprill/Documents/Sites/shandi.com.br/images/header-background_2.png"
   id="svg8"
   version="1.1"
   viewBox="0 0 508.00001 317.49999"
   height="1200"
   width="1920">
  <defs
     id="defs2" />
  <sodipodi:namedview
     inkscape:window-maximized="0"
     inkscape:window-y="25"
     inkscape:window-x="0"
     inkscape:window-height="847"
     inkscape:window-width="1440"
     units="px"
     showgrid="false"
     inkscape:document-rotation="0"
     inkscape:current-layer="layer1"
     inkscape:document-units="mm"
     inkscape:cy="2040.9449"
     inkscape:cx="3628.3465"
     inkscape:zoom="0.11410156"
     inkscape:pageshadow="2"
     inkscape:pageopacity="0.0"
     borderopacity="1.0"
     bordercolor="#666666"
     pagecolor="#ffffff"
     id="base" />
  <metadata
     id="metadata5">
    <rdf:RDF>
      <cc:Work
         rdf:about="">
        <dc:format>image/svg+xml</dc:format>
        <dc:type
           rdf:resource="http://purl.org/dc/dcmitype/StillImage" />
        <dc:title></dc:title>
      </cc:Work>
    </rdf:RDF>
  </metadata>
  <g
     id="layer1"
     inkscape:groupmode="layer"
     inkscape:label="Layer 1">
    <rect
       inkscape:export-ydpi="96"
       inkscape:export-xdpi="96"
       y="-7.1054274e-15"
       x="0"
       height="1200"
       width="1920"
       id="rect847"
       style="fill:#bf5f7a;fill-opacity:1;stroke-width:0.278895" />
    <g
       inkscape:export-ydpi="96"
       inkscape:export-xdpi="96"
       transform="matrix(0.16187142,0,0,-0.16187142,525.39299,1009.4106)"
       id="g859">
      <path
         id="path861"
         style="fill:#ffffff;fill-opacity:1;fill-rule:evenodd;stroke:none"
         d="m 2681.34,2545.27 c -530.86,677.37 -1088.89,220.71 -660.52,-118.1 -753.58,206.62 -102.76,1279.45 660.52,339.65 763.28,939.8 1414.09,-133.03 660.52,-339.65 428.37,338.81 -129.66,795.47 -660.52,118.1" />
      <path
         id="path863"
         style="fill:#ffffff;fill-opacity:1;fill-rule:evenodd;stroke:none"
         d="m 2681.31,2456.93 c -37.02,-74.63 -63.98,-144.19 -63.08,-225.28 -35.26,107.6 -200.16,402.16 -520.61,493.21 613.06,-490.61 583.72,-1455.07 583.72,-1530.15 0,30.32 -30.16,1038.88 583.73,1530.15 -320.46,-91.05 -485.36,-385.61 -520.62,-493.21 0.9,81.09 -26.11,150.65 -63.14,225.28" />
      <path
         id="path865"
         style="fill:#ffffff;fill-opacity:1;fill-rule:nonzero;stroke:none"
         d="m 582.84,271.215 v -24.82 c 0,-9.985 -1.985,-18.743 -5.922,-26.368 -3.938,-7.589 -9.516,-13.449 -16.789,-17.609 -7.246,-4.156 -15.656,-6.234 -25.203,-6.234 -9.574,0 -18.051,1.953 -25.356,5.859 -7.34,3.906 -13.011,9.418 -17.039,16.566 -4.035,7.153 -6.051,15.407 -6.051,24.825 v 39.593 c 0,9.953 1.985,18.743 5.954,26.305 3.968,7.559 9.574,13.414 16.789,17.574 7.246,4.157 15.625,6.235 25.168,6.235 7.875,0 15.121,-1.664 21.734,-4.942 6.617,-3.308 12.129,-7.937 16.602,-13.988 4.472,-6.016 7.464,-13.008 9.007,-20.945 v 0 h -23.812 v 0 c -1.039,3.683 -2.774,6.867 -5.133,9.511 -2.363,2.649 -5.168,4.664 -8.379,6.051 -3.246,1.383 -6.586,2.078 -10.019,2.078 -5.008,0 -9.387,-1.168 -13.196,-3.465 -3.812,-2.3 -6.773,-5.578 -8.824,-9.796 -2.047,-4.223 -3.086,-9.071 -3.086,-14.618 v -39.593 c 0,-4.977 1.039,-9.356 3.184,-13.106 2.109,-3.75 5.101,-6.644 9.008,-8.723 3.875,-2.05 8.347,-3.089 13.449,-3.089 5.043,0 9.484,1.105 13.293,3.277 3.812,2.172 6.742,5.352 8.82,9.512 2.047,4.16 3.09,9.043 3.09,14.711 v 4.062 h -23.816 v 21.137 z m 1380.18,76.418 h 21.61 V 181.691 h -21.61 z m 276.69,-76.418 v -24.82 c 0,-9.985 -1.98,-18.743 -5.92,-26.368 -3.94,-7.589 -9.51,-13.449 -16.79,-17.609 -7.25,-4.156 -15.66,-6.234 -25.2,-6.234 -9.57,0 -18.05,1.953 -25.36,5.859 -7.34,3.906 -13.01,9.418 -17.04,16.566 -4.03,7.153 -6.04,15.407 -6.04,24.825 v 39.593 c 0,9.953 1.98,18.743 5.94,26.305 3.97,7.559 9.58,13.414 16.8,17.574 7.24,4.157 15.62,6.235 25.17,6.235 7.87,0 15.11,-1.664 21.73,-4.942 6.61,-3.308 12.13,-7.937 16.6,-13.988 4.47,-6.016 7.46,-13.008 9.01,-20.945 v 0 h -23.81 v 0 c -1.05,3.683 -2.78,6.867 -5.14,9.511 -2.36,2.649 -5.17,4.664 -8.38,6.051 -3.24,1.383 -6.58,2.078 -10.01,2.078 -5.02,0 -9.39,-1.168 -13.2,-3.465 -3.82,-2.3 -6.78,-5.578 -8.82,-9.796 -2.05,-4.223 -3.09,-9.071 -3.09,-14.618 v -39.593 c 0,-4.977 1.04,-9.356 3.18,-13.106 2.11,-3.75 5.11,-6.644 9.01,-8.723 3.88,-2.05 8.35,-3.089 13.45,-3.089 5.04,0 9.48,1.105 13.29,3.277 3.82,2.172 6.74,5.352 8.82,9.512 2.05,4.16 3.09,9.043 3.09,14.711 v 4.062 h -23.81 v 21.137 z M 3665.7,196.184 c -9.54,0 -17.95,2.046 -25.2,6.14 -7.28,4.098 -12.88,9.86 -16.88,17.36 -4.01,7.461 -6.02,16.125 -6.02,25.953 v 38.019 c 0,9.86 2.01,18.524 6.02,25.989 4,7.464 9.6,13.261 16.88,17.359 7.25,4.09 15.66,6.137 25.2,6.137 9.51,0 17.93,-2.047 25.23,-6.137 7.28,-4.098 12.92,-9.895 16.89,-17.359 3.96,-7.465 5.95,-16.129 5.95,-25.989 v -38.019 c 0,-9.828 -1.99,-18.492 -5.95,-25.953 -3.97,-7.5 -9.61,-13.262 -16.89,-17.36 -7.3,-4.094 -15.72,-6.14 -25.23,-6.14 z m 0,21.953 c 5.04,0 9.48,1.105 13.32,3.34 3.85,2.207 6.8,5.355 8.92,9.421 2.08,4.059 3.11,8.754 3.11,14.11 v 39.308 c 0,5.356 -1.03,10.082 -3.11,14.18 -2.12,4.059 -5.07,7.242 -8.92,9.449 -3.84,2.203 -8.28,3.305 -13.32,3.305 -5.07,0 -9.48,-1.102 -13.29,-3.305 -3.81,-2.207 -6.78,-5.39 -8.89,-9.449 -2.07,-4.098 -3.12,-8.824 -3.12,-14.18 v -39.308 c 0,-5.356 1.05,-10.051 3.12,-14.11 2.11,-4.066 5.08,-7.214 8.89,-9.421 3.81,-2.235 8.22,-3.34 13.29,-3.34 z M 650.539,197.57 h -22.523 v 134.188 h 22.523 z m 47.918,134.188 h 24.004 l 57.769,-103.289 -2.234,-2.391 v 105.68 h 21.418 V 197.664 h -24.16 l -57.613,101.68 2.234,2.426 V 197.664 h -21.418 z m 149.82,0 h 22.051 V 197.57 h -22.051 z m 9.137,-113.055 H 936.32 V 197.57 h -78.906 z m 0,56.102 h 68.762 v -21.133 h -68.762 z m 0,56.953 H 936.32 V 310.621 H 857.414 Z M 1023.58,196.184 c -9.73,0 -18.17,2.015 -25.326,6.05 -7.18,4.028 -12.695,9.793 -16.535,17.289 -3.844,7.528 -5.766,16.415 -5.766,26.68 v 36.824 c 0,10.27 1.922,19.184 5.766,26.711 3.84,7.532 9.355,13.328 16.535,17.36 7.156,4.027 15.596,6.043 25.326,6.043 8.06,0 15.37,-1.731 21.92,-5.164 6.55,-3.465 12,-8.411 16.32,-14.899 4.35,-6.519 7.31,-14.176 8.91,-23.027 v 0 h -22.71 v 0 c -1.1,4.285 -2.86,8.066 -5.26,11.277 -2.39,3.246 -5.22,5.735 -8.53,7.438 -3.28,1.73 -6.84,2.582 -10.65,2.582 -5.1,0 -9.51,-1.137 -13.26,-3.469 -3.72,-2.297 -6.59,-5.57 -8.57,-9.828 -1.984,-4.219 -2.992,-9.258 -2.992,-15.024 v -36.824 c 0,-5.73 1.008,-10.707 2.992,-14.961 1.98,-4.222 4.85,-7.496 8.57,-9.765 3.75,-2.266 8.16,-3.434 13.26,-3.434 3.88,0 7.47,0.82 10.74,2.457 3.31,1.641 6.14,4.031 8.54,7.246 2.39,3.211 4.12,7.055 5.16,11.531 v 0 h 22.71 v 0 c -1.6,-8.855 -4.59,-16.507 -8.94,-22.964 -4.38,-6.458 -9.83,-11.434 -16.35,-14.899 -6.52,-3.5 -13.8,-5.23 -21.86,-5.23 z m 131.21,0 c -9.55,0 -17.96,2.046 -25.2,6.14 -7.28,4.098 -12.89,9.86 -16.89,17.36 -4,7.461 -6.02,16.125 -6.02,25.953 v 38.019 c 0,9.86 2.02,18.524 6.02,25.989 4,7.464 9.61,13.261 16.89,17.359 7.24,4.09 15.65,6.137 25.2,6.137 9.51,0 17.92,-2.047 25.23,-6.137 7.27,-4.098 12.91,-9.895 16.88,-17.359 3.97,-7.465 5.95,-16.129 5.95,-25.989 v -38.019 c 0,-9.828 -1.98,-18.492 -5.95,-25.953 -3.97,-7.5 -9.61,-13.262 -16.88,-17.36 -7.31,-4.094 -15.72,-6.14 -25.23,-6.14 z m 0,21.953 c 5.03,0 9.48,1.105 13.32,3.34 3.84,2.207 6.8,5.355 8.91,9.421 2.08,4.059 3.12,8.754 3.12,14.11 v 39.308 c 0,5.356 -1.04,10.082 -3.12,14.18 -2.11,4.059 -5.07,7.242 -8.91,9.449 -3.84,2.203 -8.29,3.305 -13.32,3.305 -5.08,0 -9.49,-1.102 -13.3,-3.305 -3.81,-2.207 -6.77,-5.39 -8.88,-9.449 -2.08,-4.098 -3.12,-8.824 -3.12,-14.18 v -39.308 c 0,-5.356 1.04,-10.051 3.12,-14.11 2.11,-4.066 5.07,-7.214 8.88,-9.421 3.81,-2.235 8.22,-3.34 13.3,-3.34 z m 92.29,113.621 h 22.05 V 197.57 h -22.05 z m 10.34,-113.055 h 77.71 V 197.57 h -77.71 z m 157.12,-22.519 c -9.54,0 -17.95,2.046 -25.2,6.14 -7.27,4.098 -12.88,9.86 -16.88,17.36 -4,7.461 -6.02,16.125 -6.02,25.953 v 38.019 c 0,9.86 2.02,18.524 6.02,25.989 4,7.464 9.61,13.261 16.88,17.359 7.25,4.09 15.66,6.137 25.2,6.137 9.51,0 17.93,-2.047 25.23,-6.137 7.28,-4.098 12.92,-9.895 16.89,-17.359 3.97,-7.465 5.95,-16.129 5.95,-25.989 v -38.019 c 0,-9.828 -1.98,-18.492 -5.95,-25.953 -3.97,-7.5 -9.61,-13.262 -16.89,-17.36 -7.3,-4.094 -15.72,-6.14 -25.23,-6.14 z m 0,21.953 c 5.04,0 9.48,1.105 13.33,3.34 3.84,2.207 6.8,5.355 8.91,9.421 2.08,4.059 3.12,8.754 3.12,14.11 v 39.308 c 0,5.356 -1.04,10.082 -3.12,14.18 -2.11,4.059 -5.07,7.242 -8.91,9.449 -3.85,2.203 -8.29,3.305 -13.33,3.305 -5.07,0 -9.48,-1.102 -13.29,-3.305 -3.81,-2.207 -6.77,-5.39 -8.88,-9.449 -2.08,-4.098 -3.12,-8.824 -3.12,-14.18 v -39.308 c 0,-5.356 1.04,-10.051 3.12,-14.11 2.11,-4.066 5.07,-7.214 8.88,-9.421 3.81,-2.235 8.22,-3.34 13.29,-3.34 z m 184.06,53.078 v -24.82 c 0,-9.985 -1.98,-18.743 -5.92,-26.368 -3.94,-7.589 -9.51,-13.449 -16.79,-17.609 -7.25,-4.156 -15.66,-6.234 -25.2,-6.234 -9.57,0 -18.05,1.953 -25.36,5.859 -7.34,3.906 -13.01,9.418 -17.04,16.566 -4.03,7.153 -6.04,15.407 -6.04,24.825 v 39.593 c 0,9.953 1.98,18.743 5.95,26.305 3.96,7.559 9.57,13.414 16.79,17.574 7.24,4.157 15.62,6.235 25.17,6.235 7.87,0 15.12,-1.664 21.73,-4.942 6.61,-3.308 12.13,-7.937 16.6,-13.988 4.47,-6.016 7.47,-13.008 9.01,-20.945 v 0 h -23.81 v 0 c -1.05,3.683 -2.78,6.867 -5.14,9.511 -2.36,2.649 -5.16,4.664 -8.38,6.051 -3.24,1.383 -6.58,2.078 -10.01,2.078 -5.01,0 -9.39,-1.168 -13.2,-3.465 -3.82,-2.3 -6.77,-5.578 -8.82,-9.796 -2.05,-4.223 -3.09,-9.071 -3.09,-14.618 v -39.593 c 0,-4.977 1.04,-9.356 3.18,-13.106 2.11,-3.75 5.11,-6.644 9.01,-8.723 3.88,-2.05 8.35,-3.089 13.45,-3.089 5.04,0 9.48,1.105 13.29,3.277 3.82,2.172 6.74,5.352 8.82,9.512 2.05,4.16 3.09,9.043 3.09,14.711 v 4.062 h -23.81 v 21.137 z m 65.84,-73.645 h -22.52 v 134.188 h 22.52 z m 83.58,134.188 h 16.03 l 50.4,-134.188 h -23.72 l -34.71,99.946 -34.59,-99.946 h -23.81 z m -26.68,-87.602 h 70.59 v -21.101 h -70.59 z m 586.07,-46.586 h -22.52 v 134.188 h 22.52 z m 47.92,134.188 h 24.01 l 57.77,-103.289 -2.24,-2.391 v 105.68 h 21.42 V 197.664 h -24.16 l -57.62,101.68 2.24,2.426 V 197.664 h -21.42 z m 149.82,0 h 22.05 V 197.57 h -22.05 z m 9.14,-113.055 h 78.9 V 197.57 h -78.9 z m 0,56.102 h 68.76 v -21.133 h -68.76 z m 0,56.953 h 78.9 v -21.137 h -78.9 z m 166.16,-135.574 c -9.73,0 -18.17,2.015 -25.32,6.05 -7.18,4.028 -12.7,9.793 -16.54,17.289 -3.84,7.528 -5.77,16.415 -5.77,26.68 v 36.824 c 0,10.27 1.93,19.184 5.77,26.711 3.84,7.532 9.36,13.328 16.54,17.36 7.15,4.027 15.59,6.043 25.32,6.043 8.07,0 15.37,-1.731 21.93,-5.164 6.55,-3.465 12,-8.411 16.31,-14.899 4.35,-6.519 7.31,-14.176 8.92,-23.027 v 0 h -22.71 v 0 c -1.11,4.285 -2.87,8.066 -5.26,11.277 -2.4,3.246 -5.23,5.735 -8.54,7.438 -3.28,1.73 -6.84,2.582 -10.65,2.582 -5.1,0 -9.51,-1.137 -13.26,-3.469 -3.72,-2.297 -6.58,-5.57 -8.56,-9.828 -1.99,-4.219 -3,-9.258 -3,-15.024 v -36.824 c 0,-5.73 1.01,-10.707 3,-14.961 1.98,-4.222 4.84,-7.496 8.56,-9.765 3.75,-2.266 8.16,-3.434 13.26,-3.434 3.88,0 7.47,0.82 10.75,2.457 3.3,1.641 6.14,4.031 8.53,7.246 2.4,3.211 4.13,7.055 5.17,11.531 v 0 h 22.71 v 0 c -1.61,-8.855 -4.6,-16.507 -8.95,-22.964 -4.37,-6.458 -9.82,-11.434 -16.35,-14.899 -6.52,-3.5 -13.79,-5.23 -21.86,-5.23 z m 131.21,0 c -9.55,0 -17.96,2.046 -25.2,6.14 -7.28,4.098 -12.89,9.86 -16.89,17.36 -4,7.461 -6.01,16.125 -6.01,25.953 v 38.019 c 0,9.86 2.01,18.524 6.01,25.989 4,7.464 9.61,13.261 16.89,17.359 7.24,4.09 15.65,6.137 25.2,6.137 9.51,0 17.92,-2.047 25.23,-6.137 7.27,-4.098 12.91,-9.895 16.88,-17.359 3.97,-7.465 5.96,-16.129 5.96,-25.989 v -38.019 c 0,-9.828 -1.99,-18.492 -5.96,-25.953 -3.97,-7.5 -9.61,-13.262 -16.88,-17.36 -7.31,-4.094 -15.72,-6.14 -25.23,-6.14 z m 0,21.953 c 5.04,0 9.48,1.105 13.32,3.34 3.84,2.207 6.81,5.355 8.91,9.421 2.08,4.059 3.13,8.754 3.13,14.11 v 39.308 c 0,5.356 -1.05,10.082 -3.13,14.18 -2.1,4.059 -5.07,7.242 -8.91,9.449 -3.84,2.203 -8.28,3.305 -13.32,3.305 -5.07,0 -9.48,-1.102 -13.3,-3.305 -3.81,-2.207 -6.77,-5.39 -8.88,-9.449 -2.08,-4.098 -3.12,-8.824 -3.12,-14.18 v -39.308 c 0,-5.356 1.04,-10.051 3.12,-14.11 2.11,-4.066 5.07,-7.214 8.88,-9.421 3.82,-2.235 8.23,-3.34 13.3,-3.34 z m 92.3,113.621 h 22.05 V 197.57 h -22.05 z m 10.33,-113.055 H 2992 V 197.57 h -77.71 z m 157.13,-22.519 c -9.55,0 -17.96,2.046 -25.21,6.14 -7.27,4.098 -12.88,9.86 -16.88,17.36 -4,7.461 -6.01,16.125 -6.01,25.953 v 38.019 c 0,9.86 2.01,18.524 6.01,25.989 4,7.464 9.61,13.261 16.88,17.359 7.25,4.09 15.66,6.137 25.21,6.137 9.51,0 17.92,-2.047 25.23,-6.137 7.28,-4.098 12.91,-9.895 16.88,-17.359 3.97,-7.465 5.95,-16.129 5.95,-25.989 v -38.019 c 0,-9.828 -1.98,-18.492 -5.95,-25.953 -3.97,-7.5 -9.6,-13.262 -16.88,-17.36 -7.31,-4.094 -15.72,-6.14 -25.23,-6.14 z m 0,21.953 c 5.04,0 9.47,1.105 13.32,3.34 3.84,2.207 6.8,5.355 8.92,9.421 2.07,4.059 3.11,8.754 3.11,14.11 v 39.308 c 0,5.356 -1.04,10.082 -3.11,14.18 -2.12,4.059 -5.08,7.242 -8.92,9.449 -3.85,2.203 -8.28,3.305 -13.32,3.305 -5.08,0 -9.49,-1.102 -13.3,-3.305 -3.81,-2.207 -6.77,-5.39 -8.88,-9.449 -2.08,-4.098 -3.12,-8.824 -3.12,-14.18 v -39.308 c 0,-5.356 1.04,-10.051 3.12,-14.11 2.11,-4.066 5.07,-7.214 8.88,-9.421 3.81,-2.235 8.22,-3.34 13.3,-3.34 z m 184.06,53.078 v -24.82 c 0,-9.985 -1.99,-18.743 -5.93,-26.368 -3.93,-7.589 -9.51,-13.449 -16.78,-17.609 -7.25,-4.156 -15.66,-6.234 -25.2,-6.234 -9.58,0 -18.05,1.953 -25.36,5.859 -7.34,3.906 -13.01,9.418 -17.04,16.566 -4.04,7.153 -6.05,15.407 -6.05,24.825 v 39.593 c 0,9.953 1.98,18.743 5.95,26.305 3.97,7.559 9.57,13.414 16.79,17.574 7.25,4.157 15.62,6.235 25.17,6.235 7.87,0 15.12,-1.664 21.73,-4.942 6.62,-3.308 12.13,-7.937 16.6,-13.988 4.48,-6.016 7.47,-13.008 9.01,-20.945 v 0 h -23.81 v 0 c -1.04,3.683 -2.77,6.867 -5.13,9.511 -2.37,2.649 -5.17,4.664 -8.38,6.051 -3.25,1.383 -6.59,2.078 -10.02,2.078 -5.01,0 -9.39,-1.168 -13.2,-3.465 -3.81,-2.3 -6.77,-5.578 -8.82,-9.796 -2.05,-4.223 -3.09,-9.071 -3.09,-14.618 v -39.593 c 0,-4.977 1.04,-9.356 3.19,-13.106 2.1,-3.75 5.1,-6.644 9,-8.723 3.88,-2.05 8.35,-3.089 13.46,-3.089 5.04,0 9.48,1.105 13.29,3.277 3.81,2.172 6.74,5.352 8.82,9.512 2.04,4.16 3.09,9.043 3.09,14.711 v 4.062 h -23.82 v 21.137 z m 65.84,-73.645 h -22.53 v 134.188 h 22.53 z m 83.57,134.188 h 16.04 l 50.39,-134.188 h -23.71 l -34.72,99.946 -34.58,-99.946 h -23.82 z m -26.68,-87.602 h 70.59 v -21.101 h -70.59 z m 381.65,87.602 h 24 l 57.77,-103.289 -2.24,-2.391 v 105.68 h 21.43 V 197.664 h -24.16 l -57.62,101.68 2.24,2.426 V 197.664 h -21.42 z m 194.68,-135.574 c -9.74,0 -18.18,2.015 -25.33,6.05 -7.18,4.028 -12.7,9.793 -16.54,17.289 -3.84,7.528 -5.76,16.415 -5.76,26.68 v 36.824 c 0,10.27 1.92,19.184 5.76,26.711 3.84,7.532 9.36,13.328 16.54,17.36 7.15,4.027 15.59,6.043 25.33,6.043 8.06,0 15.37,-1.731 21.92,-5.164 6.55,-3.465 12,-8.411 16.31,-14.899 4.35,-6.519 7.31,-14.176 8.92,-23.027 v 0 h -22.71 v 0 c -1.1,4.285 -2.87,8.066 -5.27,11.277 -2.39,3.246 -5.22,5.735 -8.53,7.438 -3.28,1.73 -6.84,2.582 -10.64,2.582 -5.11,0 -9.52,-1.137 -13.27,-3.469 -3.72,-2.297 -6.58,-5.57 -8.57,-9.828 -1.98,-4.219 -2.99,-9.258 -2.99,-15.024 v -36.824 c 0,-5.73 1.01,-10.707 2.99,-14.961 1.99,-4.222 4.85,-7.496 8.57,-9.765 3.75,-2.266 8.16,-3.434 13.27,-3.434 3.87,0 7.46,0.82 10.73,2.457 3.31,1.641 6.15,4.031 8.54,7.246 2.39,3.211 4.13,7.055 5.17,11.531 v 0 h 22.71 v 0 c -1.61,-8.855 -4.6,-16.507 -8.95,-22.964 -4.38,-6.458 -9.83,-11.434 -16.35,-14.899 -6.51,-3.5 -13.79,-5.23 -21.85,-5.23 z m 131.2,0 c -9.54,0 -17.96,2.046 -25.2,6.14 -7.28,4.098 -12.88,9.86 -16.88,17.36 -4.01,7.461 -6.02,16.125 -6.02,25.953 v 38.019 c 0,9.86 2.01,18.524 6.02,25.989 4,7.464 9.6,13.261 16.88,17.359 7.24,4.09 15.66,6.137 25.2,6.137 9.51,0 17.92,-2.047 25.23,-6.137 7.28,-4.098 12.91,-9.895 16.88,-17.359 3.97,-7.465 5.95,-16.129 5.95,-25.989 v -38.019 c 0,-9.828 -1.98,-18.492 -5.95,-25.953 -3.97,-7.5 -9.6,-13.262 -16.88,-17.36 -7.31,-4.094 -15.72,-6.14 -25.23,-6.14 z m 0,21.953 c 5.04,0 9.48,1.105 13.32,3.34 3.85,2.207 6.8,5.355 8.92,9.421 2.07,4.059 3.11,8.754 3.11,14.11 v 39.308 c 0,5.356 -1.04,10.082 -3.11,14.18 -2.12,4.059 -5.07,7.242 -8.92,9.449 -3.84,2.203 -8.28,3.305 -13.32,3.305 -5.07,0 -9.48,-1.102 -13.29,-3.305 -3.82,-2.207 -6.78,-5.39 -8.89,-9.449 -2.08,-4.098 -3.12,-8.824 -3.12,-14.18 v -39.308 c 0,-5.356 1.04,-10.051 3.12,-14.11 2.11,-4.066 5.07,-7.214 8.89,-9.421 3.81,-2.235 8.22,-3.34 13.29,-3.34 z m 92.3,113.621 h 22.05 V 197.57 h -22.05 z m 10.33,-113.055 h 77.71 V 197.57 h -77.71 z m 157.13,-22.519 c -9.55,0 -17.96,2.046 -25.2,6.14 -7.28,4.098 -12.89,9.86 -16.89,17.36 -4,7.461 -6.02,16.125 -6.02,25.953 v 38.019 c 0,9.86 2.02,18.524 6.02,25.989 4,7.464 9.61,13.261 16.89,17.359 7.24,4.09 15.65,6.137 25.2,6.137 9.51,0 17.92,-2.047 25.23,-6.137 7.27,-4.098 12.91,-9.895 16.88,-17.359 3.97,-7.465 5.95,-16.129 5.95,-25.989 v -38.019 c 0,-9.828 -1.98,-18.492 -5.95,-25.953 -3.97,-7.5 -9.61,-13.262 -16.88,-17.36 -7.31,-4.094 -15.72,-6.14 -25.23,-6.14 z m 0,21.953 c 5.04,0 9.48,1.105 13.32,3.34 3.84,2.207 6.8,5.355 8.91,9.421 2.08,4.059 3.12,8.754 3.12,14.11 v 39.308 c 0,5.356 -1.04,10.082 -3.12,14.18 -2.11,4.059 -5.07,7.242 -8.91,9.449 -3.84,2.203 -8.28,3.305 -13.32,3.305 -5.07,0 -9.48,-1.102 -13.3,-3.305 -3.81,-2.207 -6.77,-5.39 -8.88,-9.449 -2.08,-4.098 -3.12,-8.824 -3.12,-14.18 v -39.308 c 0,-5.356 1.04,-10.051 3.12,-14.11 2.11,-4.066 5.07,-7.214 8.88,-9.421 3.82,-2.235 8.23,-3.34 13.3,-3.34 z m -10.08,135.578 25.48,22.613 14.49,-14.961 -27.25,-20.851 z m 194.13,-82.5 v -24.82 c 0,-9.985 -1.98,-18.743 -5.92,-26.368 -3.93,-7.589 -9.51,-13.449 -16.79,-17.609 -7.24,-4.156 -15.65,-6.234 -25.2,-6.234 -9.57,0 -18.05,1.953 -25.35,5.859 -7.34,3.906 -13.01,9.418 -17.04,16.566 -4.04,7.153 -6.05,15.407 -6.05,24.825 v 39.593 c 0,9.953 1.98,18.743 5.95,26.305 3.97,7.559 9.58,13.414 16.79,17.574 7.24,4.157 15.62,6.235 25.17,6.235 7.87,0 15.12,-1.664 21.73,-4.942 6.62,-3.308 12.13,-7.937 16.61,-13.988 4.47,-6.016 7.46,-13.008 9,-20.945 v 0 h -23.81 v 0 c -1.04,3.683 -2.77,6.867 -5.14,9.511 -2.36,2.649 -5.16,4.664 -8.37,6.051 -3.25,1.383 -6.59,2.078 -10.02,2.078 -5.01,0 -9.39,-1.168 -13.2,-3.465 -3.81,-2.3 -6.77,-5.578 -8.82,-9.796 -2.05,-4.223 -3.09,-9.071 -3.09,-14.618 v -39.593 c 0,-4.977 1.04,-9.356 3.18,-13.106 2.11,-3.75 5.11,-6.644 9.02,-8.723 3.87,-2.05 8.34,-3.089 13.44,-3.089 5.04,0 9.49,1.105 13.3,3.277 3.81,2.172 6.74,5.352 8.82,9.512 2.04,4.16 3.08,9.043 3.08,14.711 v 4.062 h -23.81 v 21.137 z m 65.84,-73.645 h -22.51 v 134.188 h 22.51 z m 92.78,-1.386 c -9.73,0 -18.17,2.015 -25.32,6.05 -7.19,4.028 -12.7,9.793 -16.54,17.289 -3.85,7.528 -5.77,16.415 -5.77,26.68 v 36.824 c 0,10.27 1.92,19.184 5.77,26.711 3.84,7.532 9.35,13.328 16.54,17.36 7.15,4.027 15.59,6.043 25.32,6.043 8.06,0 15.37,-1.731 21.92,-5.164 6.55,-3.465 12.01,-8.411 16.32,-14.899 4.35,-6.519 7.31,-14.176 8.91,-23.027 v 0 h -22.71 v 0 c -1.1,4.285 -2.86,8.066 -5.26,11.277 -2.39,3.246 -5.22,5.735 -8.53,7.438 -3.28,1.73 -6.84,2.582 -10.65,2.582 -5.1,0 -9.51,-1.137 -13.26,-3.469 -3.72,-2.297 -6.59,-5.57 -8.57,-9.828 -1.98,-4.219 -2.99,-9.258 -2.99,-15.024 v -36.824 c 0,-5.73 1.01,-10.707 2.99,-14.961 1.98,-4.222 4.85,-7.496 8.57,-9.765 3.75,-2.266 8.16,-3.434 13.26,-3.434 3.88,0 7.47,0.82 10.74,2.457 3.31,1.641 6.14,4.031 8.54,7.246 2.39,3.211 4.12,7.055 5.16,11.531 v 0 h 22.71 v 0 c -1.6,-8.855 -4.59,-16.507 -8.94,-22.964 -4.38,-6.458 -9.83,-11.434 -16.35,-14.899 -6.52,-3.5 -13.8,-5.23 -21.86,-5.23 z m 121.5,135.574 h 16.04 l 50.4,-134.188 h -23.72 l -34.72,99.946 -34.58,-99.946 h -23.82 z m -26.68,-87.602 h 70.59 v -21.101 h -70.59 v 21.101" />
      <path
         id="path867"
         style="fill:#ffffff;fill-opacity:1;fill-rule:nonzero;stroke:none"
         d="M 464.543,572.586 V 810.238 L 378.43,637.453 H 329.219 L 243.105,810.238 V 572.586 h -91.707 v 397.023 h 99.536 l 102.89,-207.457 103.449,207.457 h 98.973 V 572.586 Z m 275.68,397.023 h 82.754 L 967.805,572.586 h -93.942 l -30.754,88.91 H 719.531 l -30.199,-88.91 H 595.395 Z M 828.012,724.688 781.598,865.039 734.07,724.688 Z M 1006.95,572.586 v 397.023 h 178.94 c 18.64,0 35.88,-3.918 51.72,-11.746 15.85,-7.828 29.55,-18.078 41.1,-30.754 11.56,-12.675 20.6,-27.027 27.12,-43.058 6.53,-16.028 9.79,-32.246 9.79,-48.649 0,-12.3 -1.49,-24.136 -4.48,-35.507 -2.98,-11.372 -7.26,-22.086 -12.86,-32.153 -5.59,-10.066 -12.39,-19.105 -20.4,-27.121 -8.02,-8.016 -17.06,-14.816 -27.13,-20.41 l 87.23,-147.625 h -103.44 l -76.05,128.055 h -59.83 V 572.586 Z m 91.71,208.016 h 83.88 c 10.8,0 20.12,5.128 27.95,15.378 7.83,10.254 11.74,23.395 11.74,39.422 0,16.403 -4.47,29.453 -13.41,39.145 -8.95,9.691 -18.64,14.539 -29.08,14.539 h -81.08 z m 579.31,108.484 h -120.78 v -316.5 h -91.71 v 316.5 h -121.34 v 80.523 h 333.83 z m 44.73,-316.5 v 397.023 h 91.71 V 572.586 Z m 259.46,227.027 V 572.586 h -91.7 v 397.023 h 71.57 l 185.1,-233.183 v 233.183 h 91.7 V 572.586 h -73.81 z m 440.64,169.996 h 82.76 l 144.83,-397.023 h -93.94 l -30.76,88.91 h -123.58 l -30.2,-88.91 h -93.94 z m 87.79,-244.921 -46.41,140.351 -47.53,-140.351 z m 430.25,242.683 h 47.53 l 52.56,-138.117 53.12,138.117 h 47.54 l -68.79,-172.789 68.23,-163.84 134.2,338.867 h 54.8 L 3163.95,572.586 h -43.61 l -78.85,187.328 -79.4,-187.328 h -43.62 l -165.52,397.023 h 54.25 l 134.76,-338.867 67.66,163.84 z m 561.98,2.238 h 42.5 l 162.16,-397.023 h -53.69 l -46.97,116.312 h -166.63 l -46.42,-116.312 h -53.68 z m 92.82,-241.57 -71.57,183.414 -73.82,-183.414 z M 4026.21,626.27 c -35.04,-37.653 -75.3,-56.477 -120.78,-56.477 -26.47,0 -50.98,5.777 -73.54,17.332 -22.55,11.559 -42.03,26.75 -58.43,45.574 -16.4,18.828 -29.35,40.356 -38.86,64.586 -9.51,24.231 -14.26,49.207 -14.26,74.93 0,26.84 4.66,52.285 13.98,76.328 9.32,24.047 22.18,45.293 38.58,63.75 16.4,18.453 35.98,33.082 58.72,43.895 22.74,10.808 47.34,16.214 73.81,16.214 38.39,0 69.99,-8.015 94.78,-24.047 24.79,-16.027 43.71,-36.902 56.75,-62.625 l -38.58,-26.839 c -11.93,23.109 -27.77,40.257 -47.53,51.441 -19.76,11.188 -41.94,16.777 -66.54,16.777 -20.13,0 -38.4,-4.379 -54.8,-13.14 -16.4,-8.762 -30.38,-20.317 -41.94,-34.668 -11.55,-14.356 -20.5,-30.942 -26.84,-49.77 -6.34,-18.824 -9.5,-38.304 -9.5,-58.433 0,-21.25 3.54,-41.285 10.62,-60.114 7.08,-18.824 16.78,-35.414 29.08,-49.765 12.3,-14.352 26.84,-25.633 43.61,-33.832 16.78,-8.199 35.05,-12.301 54.8,-12.301 43.25,0 82.2,20.875 116.87,62.629 v 54.797 h -85.55 v 38.027 h 128.05 V 572.586 h -42.5 z m 169.43,249.394 V 572.586 h -50.32 v 397.023 h 39.14 l 246.04,-309.23 v 308.668 h 50.33 V 572.586 h -42.5 z M 4845.41,617.32 v -44.734 h -269.52 v 397.023 h 264.49 V 924.871 H 4626.22 V 796.262 h 186.21 V 754.324 H 4626.22 V 617.32 Z m 68.79,-44.734 v 397.023 h 169.99 c 17.52,0 33.64,-3.636 48.36,-10.906 14.73,-7.269 27.41,-16.961 38.03,-29.078 10.63,-12.113 18.92,-25.723 24.88,-40.82 5.97,-15.098 8.95,-30.477 8.95,-46.133 0,-13.793 -1.95,-27.117 -5.87,-39.981 -3.91,-12.863 -9.51,-24.511 -16.77,-34.949 -7.27,-10.437 -16.04,-19.383 -26.29,-26.84 -10.25,-7.457 -21.71,-12.863 -34.39,-16.214 l 96.18,-152.102 h -57.04 L 5069.65,715.18 H 4964.52 V 572.586 Z m 50.32,187.328 h 120.23 c 10.43,0 19.85,2.238 28.23,6.711 8.39,4.473 15.57,10.531 21.54,18.172 5.96,7.644 10.62,16.496 13.98,26.562 3.35,10.067 5.03,20.5 5.03,31.313 0,11.183 -1.96,21.715 -5.87,31.594 -3.92,9.879 -9.14,18.64 -15.66,26.281 -6.53,7.644 -14.17,13.605 -22.93,17.894 -8.76,4.289 -17.98,6.43 -27.68,6.43 H 4964.52 V 759.914" />
    </g>
  </g>
</svg>
