<?xml version="1.0" encoding="UTF-8" standalone="no"?>
<svg
   xmlns:dc="http://purl.org/dc/elements/1.1/"
   xmlns:cc="http://creativecommons.org/ns#"
   xmlns:rdf="http://www.w3.org/1999/02/22-rdf-syntax-ns#"
   xmlns:svg="http://www.w3.org/2000/svg"
   xmlns="http://www.w3.org/2000/svg"
   xmlns:sodipodi="http://sodipodi.sourceforge.net/DTD/sodipodi-0.dtd"
   xmlns:inkscape="http://www.inkscape.org/namespaces/inkscape"
   version="1.1"
   id="Layer_1"
   x="0px"
   y="0px"
   viewBox="0 0 99.999998 99.999997"
   xml:space="preserve"
   sodipodi:docname="round-diu.svg"
   inkscape:version="1.0 (4035a4f, 2020-05-01)"
   width="100"
   height="100"><metadata
   id="metadata164"><rdf:RDF><cc:Work
       rdf:about=""><dc:format>image/svg+xml</dc:format><dc:type
         rdf:resource="http://purl.org/dc/dcmitype/StillImage" /><dc:title>hexagon-orange</dc:title></cc:Work></rdf:RDF></metadata><defs
   id="defs162" /><sodipodi:namedview
   inkscape:document-rotation="0"
   pagecolor="#ffffff"
   bordercolor="#666666"
   borderopacity="1"
   objecttolerance="10"
   gridtolerance="10"
   guidetolerance="10"
   inkscape:pageopacity="0"
   inkscape:pageshadow="2"
   inkscape:window-width="1161"
   inkscape:window-height="659"
   id="namedview160"
   showgrid="false"
   inkscape:zoom="2.6369269"
   inkscape:cx="10.553947"
   inkscape:cy="43.615544"
   inkscape:window-x="0"
   inkscape:window-y="25"
   inkscape:window-maximized="0"
   inkscape:current-layer="Layer_1"
   showguides="false" />
<style
   type="text/css"
   id="style153">
	.st0{fill:#14BF98;}
</style>
<title
   id="title155">hexagon-orange</title>
<circle
   style="opacity:1;fill:#bf5f7a;stroke-width:3.33776"
   id="path2884"
   cx="50"
   cy="50"
   r="49" />
<g
   transform="matrix(0.87335345,0,0,0.87334728,6.3323288,7.6171468)"
   id="g1582"><path
     id="path1580"
     d="m 78.615,29.767 c -0.051,-0.34 -0.271,-0.63 -0.584,-0.77 -0.102,-0.045 -10.176,-4.523 -15.236,-6.868 -4.748,-2.201 -6.701,-2.259 -7.221,-2.218 -2.916,0.019 -4.63,1.602 -5.573,3.429 -0.943,-1.826 -2.657,-3.411 -5.575,-3.429 -0.52,-0.041 -2.474,0.017 -7.222,2.218 -5.059,2.344 -15.135,6.823 -15.236,6.868 -0.313,0.14 -0.534,0.43 -0.583,0.77 -0.049,0.34 0.079,0.681 0.339,0.904 0.778,0.667 2.768,1.407 4.731,-0.552 0.282,-0.28 0.361,-0.688 0.238,-1.039 3.417,-1.528 8.294,-3.72 11.352,-5.137 4.598,-2.131 6.203,-2.04 6.178,-2.044 0.05,0.008 0.101,0.012 0.152,0.012 4.441,0 4.62,5.173 4.625,5.371 v 2.879 h -0.938 c -0.552,0 -1,0.447 -1,1 0,0.553 0.448,1 1,1 H 49 v 0.006 h -0.938 c -0.552,0 -1,0.447 -1,1 0,0.553 0.448,1 1,1 H 49 v 0.006 h -0.938 c -0.552,0 -1,0.447 -1,1 0,0.553 0.448,1 1,1 H 49 v 0.006 h -0.938 c -0.552,0 -1,0.447 -1,1 0,0.553 0.448,1 1,1 H 49 v 0.006 h -0.938 c -0.552,0 -1,0.447 -1,1 0,0.553 0.448,1 1,1 H 49 v 0.006 h -0.938 c -0.552,0 -1,0.447 -1,1 0,0.553 0.448,1 1,1 H 49 v 0.007 h -0.938 c -0.552,0 -1,0.447 -1,1 0,0.553 0.448,1 1,1 H 49 v 0.006 h -0.938 c -0.552,0 -1,0.447 -1,1 0,0.553 0.448,1 1,1 H 49 v 0.006 h -0.938 c -0.552,0 -1,0.447 -1,1 0,0.553 0.448,1 1,1 H 49 v 0.006 h -0.938 c -0.552,0 -1,0.447 -1,1 0,0.553 0.448,1 1,1 H 49 v 0.006 h -0.938 c -0.552,0 -1,0.447 -1,1 0,0.553 0.448,1 1,1 H 49 v 0.006 h -0.938 c -0.552,0 -1,0.447 -1,1 0,0.553 0.448,1 1,1 H 49 v 0.006 h -0.938 c -0.552,0 -1,0.447 -1,1 0,0.553 0.448,1 1,1 H 49 v 0.006 h -0.938 c -0.552,0 -1,0.447 -1,1 0,0.553 0.448,1 1,1 H 49 v 0.006 h -0.938 c -0.552,0 -1,0.447 -1,1 0,0.553 0.448,1 1,1 H 49 v 0.006 h -0.938 c -0.552,0 -1,0.447 -1,1 0,0.553 0.448,1 1,1 H 49 v 0.007 h -0.938 c -0.552,0 -1,0.447 -1,1 0,0.553 0.448,1 1,1 H 49 v 0.006 h -0.938 c -0.552,0 -1,0.447 -1,1 0,0.553 0.448,1 1,1 H 49 v 0.006 h -0.938 c -0.552,0 -1,0.447 -1,1 0,0.553 0.448,1 1,1 H 49 v 0.006 h -0.938 c -0.552,0 -1,0.447 -1,1 0,0.553 0.448,1 1,1 H 49 v 4.138 c 0,1.29 -0.958,2.656 -0.96,2.66 -0.261,0.382 -0.415,0.842 -0.415,1.339 0,1.312 1.063,2.375 2.375,2.375 1.312,0 2.375,-1.063 2.375,-2.375 0,-0.477 -0.144,-0.918 -0.385,-1.289 L 52,77.115 c 0,0 -0.849,-1.148 -1,-2.33 v -4.511 h 0.938 c 0.553,0 1,-0.447 1,-1 0,-0.553 -0.447,-1 -1,-1 H 51 v -0.006 h 0.938 c 0.553,0 1,-0.447 1,-1 0,-0.553 -0.447,-1 -1,-1 H 51 v -0.006 h 0.938 c 0.553,0 1,-0.447 1,-1 0,-0.553 -0.447,-1 -1,-1 H 51 v -0.006 h 0.938 c 0.553,0 1,-0.447 1,-1 0,-0.553 -0.447,-1 -1,-1 H 51 V 62.25 h 0.938 c 0.553,0 1,-0.447 1,-1 0,-0.553 -0.447,-1 -1,-1 H 51 v -0.006 h 0.938 c 0.553,0 1,-0.447 1,-1 0,-0.553 -0.447,-1 -1,-1 H 51 v -0.006 h 0.938 c 0.553,0 1,-0.447 1,-1 0,-0.553 -0.447,-1 -1,-1 H 51 v -0.006 h 0.938 c 0.553,0 1,-0.447 1,-1 0,-0.553 -0.447,-1 -1,-1 H 51 v -0.006 h 0.938 c 0.553,0 1,-0.447 1,-1 0,-0.553 -0.447,-1 -1,-1 H 51 V 52.22 h 0.938 c 0.553,0 1,-0.447 1,-1 0,-0.553 -0.447,-1 -1,-1 H 51 v -0.006 h 0.938 c 0.553,0 1,-0.447 1,-1 0,-0.553 -0.447,-1 -1,-1 H 51 v -0.006 h 0.938 c 0.553,0 1,-0.447 1,-1 0,-0.553 -0.447,-1 -1,-1 H 51 v -0.006 h 0.938 c 0.553,0 1,-0.447 1,-1 0,-0.553 -0.447,-1 -1,-1 H 51 v -0.006 h 0.938 c 0.553,0 1,-0.447 1,-1 0,-0.553 -0.447,-1 -1,-1 H 51 V 42.19 h 0.938 c 0.553,0 1,-0.447 1,-1 0,-0.553 -0.447,-1 -1,-1 H 51 v -0.006 h 0.938 c 0.553,0 1,-0.447 1,-1 0,-0.553 -0.447,-1 -1,-1 H 51 v -0.006 h 0.938 c 0.553,0 1,-0.447 1,-1 0,-0.553 -0.447,-1 -1,-1 H 51 v -0.006 h 0.938 c 0.553,0 1,-0.447 1,-1 0,-0.553 -0.447,-1 -1,-1 H 51 v -0.006 h 0.938 c 0.553,0 1,-0.447 1,-1 0,-0.553 -0.447,-1 -1,-1 H 51 V 32.16 h 0.938 c 0.553,0 1,-0.447 1,-1 0,-0.553 -0.447,-1 -1,-1 H 51 v -2.859 c 0.004,-0.22 0.156,-5.391 4.625,-5.391 0.025,0 0.086,-0.004 0.111,-0.006 0.014,0.002 1.619,-0.093 6.219,2.039 3.057,1.417 7.934,3.608 11.352,5.137 -0.123,0.352 -0.045,0.759 0.237,1.039 1.966,1.958 3.953,1.218 4.731,0.552 0.261,-0.224 0.389,-0.565 0.34,-0.904 z"
     fill="#000000"
     style="fill:#ffffff;fill-opacity:1" /></g></svg>
