<?xml version="1.0" encoding="UTF-8" standalone="no"?>
<svg
   xmlns:dc="http://purl.org/dc/elements/1.1/"
   xmlns:cc="http://creativecommons.org/ns#"
   xmlns:rdf="http://www.w3.org/1999/02/22-rdf-syntax-ns#"
   xmlns:svg="http://www.w3.org/2000/svg"
   xmlns="http://www.w3.org/2000/svg"
   xmlns:xlink="http://www.w3.org/1999/xlink"
   xmlns:sodipodi="http://sodipodi.sourceforge.net/DTD/sodipodi-0.dtd"
   xmlns:inkscape="http://www.inkscape.org/namespaces/inkscape"
   version="1.1"
   id="Layer_1"
   x="0px"
   y="0px"
   viewBox="0 0 99.999998 99.999997"
   xml:space="preserve"
   sodipodi:docname="round-laparoscopia.svg"
   inkscape:version="1.0 (4035a4f, 2020-05-01)"
   width="100"
   height="100"><metadata
   id="metadata164"><rdf:RDF><cc:Work
       rdf:about=""><dc:format>image/svg+xml</dc:format><dc:type
         rdf:resource="http://purl.org/dc/dcmitype/StillImage" /><dc:title>hexagon-orange</dc:title></cc:Work></rdf:RDF></metadata><defs
   id="defs162"><rect
     id="w"
     x="0"
     width="100"
     height="100" /><rect
     id="v"
     width="100"
     height="100" /><rect
     id="u"
     width="100"
     height="100" /><rect
     id="t"
     width="100"
     height="100" /><rect
     id="s"
     width="99.7"
     height="99.7" /><rect
     id="r"
     width="100"
     height="100" /><rect
     id="q"
     width="100"
     height="100" /><rect
     id="p"
     width="100"
     height="100" /><rect
     id="o"
     x="0.1"
     width="99.8"
     height="99.8" /><rect
     id="n"
     width="100"
     height="100" /><rect
     id="m"
     width="100"
     height="100" /><rect
     id="l"
     x="0"
     y="-0.2"
     width="100"
     height="100" /><rect
     id="k"
     width="100"
     height="100" /><rect
     id="j"
     width="100"
     height="100" /><rect
     id="i"
     width="100"
     height="100" /><rect
     id="h"
     width="100"
     height="100" /><rect
     id="g"
     width="100"
     height="100" /><rect
     id="f"
     width="100"
     height="100" /><rect
     id="e"
     width="100"
     height="100" /><rect
     id="d"
     width="100"
     height="100" /></defs><sodipodi:namedview
   inkscape:document-rotation="0"
   pagecolor="#ffffff"
   bordercolor="#666666"
   borderopacity="1"
   objecttolerance="10"
   gridtolerance="10"
   guidetolerance="10"
   inkscape:pageopacity="0"
   inkscape:pageshadow="2"
   inkscape:window-width="1440"
   inkscape:window-height="802"
   id="namedview160"
   showgrid="false"
   inkscape:zoom="6.0612245"
   inkscape:cx="50"
   inkscape:cy="50"
   inkscape:window-x="0"
   inkscape:window-y="25"
   inkscape:window-maximized="0"
   inkscape:current-layer="Layer_1"
   showguides="false" />
<style
   type="text/css"
   id="style153">
	.st0{fill:#14BF98;}
</style>
<title
   id="title155">hexagon-orange</title>
<circle
   style="opacity:1;fill:#bf5f7a;stroke-width:3.33776"
   id="path2884"
   cx="50"
   cy="50"
   r="49" />
<style
   type="text/css"
   id="style1624">
	.st0{display:none;}
	.st1{display:inline;}
	.st2{clip-path:url(#an);}
	.st3{clip-path:url(#am);}
	.st4{clip-path:url(#al);}
	.st5{clip-path:url(#ak);}
	.st6{clip-path:url(#aj);}
	.st7{clip-path:url(#c);}
	.st8{clip-path:url(#c);fill:none;stroke:#000000;stroke-width:3;stroke-miterlimit:10;}
	.st9{clip-path:url(#ai);}
	.st10{clip-path:url(#ah);}
	.st11{clip-path:url(#b);fill:none;}
	.st12{clip-path:url(#b);}
	.st13{clip-path:url(#ag);}
	.st14{clip-path:url(#af);}
	.st15{clip-path:url(#ae);}
	.st16{clip-path:url(#a);fill:#FFFFFF;}
	.st17{clip-path:url(#a);}
	.st18{clip-path:url(#ad);}
	.st19{clip-path:url(#ac);}
	.st20{clip-path:url(#ab);}
	.st21{clip-path:url(#aa);}
	.st22{clip-path:url(#z);}
	.st23{clip-path:url(#y);}
	.st24{clip-path:url(#x);}
</style><g
   transform="translate(-100.9859,-7.4134965)"
   id="g1636"
   class="st0"><g
     id="g1634"
     class="st1"><defs
       id="defs1627"><rect
         height="100"
         width="100"
         x="0"
         id="rect1933"
         y="0" /></defs><clipPath
       id="an"><use
         id="use1629"
         overflow="visible"
         xlink:href="#w"
         x="0"
         y="0"
         width="100%"
         height="100%" /></clipPath><path
       id="path1632"
       clip-path="url(#an)"
       d="M 70.5,75.8 56.4,70 c -0.6,-0.3 -0.6,-1.1 0,-1.4 l 10.3,-4.2 c 0.8,-0.3 1.5,-0.5 2.3,-0.5 2.4,0 4.7,1.5 5.6,3.9 1.1,3.1 -0.6,6.5 -3.6,7.7 l -0.5,0.3 c 0,0 0,0 0,0 z M 50,6.4 c -5.1,4.2 -24,20.9 -24,34 0,8 2.5,13.8 7.6,17.3 -0.8,-2.1 -1.3,-4.6 -1.3,-7.3 0,-10.8 15.7,-24.1 16.4,-24.6 l 1.3,-1.1 1.3,1.1 c 0.7,0.6 16.4,13.8 16.4,24.6 0,2.6 -0.4,4.9 -1.2,6.9 C 71.5,53.7 74,48.1 74,40.5 74,34.4 69.7,26.4 61.5,17.5 56.9,12.3 52.2,8.2 50,6.4 m 0,-2.6 c 0,0 26,20.4 26,36.6 0,9.8 -4,16.3 -10.6,19.9 -0.2,0.1 -0.4,0.2 -0.6,0.2 -0.9,0 -1.7,-1 -1.1,-1.9 1.3,-2.1 2.1,-4.8 2.1,-8.2 0,-10 -15.7,-23.1 -15.7,-23.1 0,0 -15.8,13 -15.8,23 0,3.5 0.7,6.3 2.1,8.5 0.6,0.9 -0.1,2 -1,2 -0.2,0 -0.4,0 -0.6,-0.1 C 27.9,57.2 24,50.6 24,40.4 24,24.2 50,3.8 50,3.8 Z m 0.2,39.9 c -3,2.8 -7.8,8.3 -7.8,12.1 0,4.9 2.4,7.2 7.6,7.2 5.4,0 8,-2.4 8,-7.2 0,-3.8 -4.8,-9.3 -7.8,-12.1 m 0,-2.7 c 0,0 9.8,8.4 9.8,14.8 0,6.4 -4.1,9.2 -10,9.2 -5.9,0 -9.6,-2.8 -9.6,-9.2 0,-6.4 9.8,-14.8 9.8,-14.8 z m -6,45.7 -18.9,7.8 C 24.5,94.9 23.8,95 23,95 20.6,95 18.3,93.5 17.4,91 16.3,87.9 18,84.6 21,83.3 l 8.6,-3.6 c 1,-0.4 2.1,-0.4 3.1,0 l 11.5,4.7 c 1,0.5 1,1.9 0,2.3 z m -17.5,0.8 c -0.8,-2 -3.2,-3 -5.2,-2.2 -2,0.8 -3,3.2 -2.2,5.2 0.8,2 3.2,3 5.2,2.2 2.1,-0.9 3,-3.2 2.2,-5.2 z m 57.8,3.8 C 83.5,93.6 81.3,95 79,95 78.2,95 77.5,94.9 76.7,94.5 L 29.9,75.4 c -3.1,-1.3 -4.5,-4.8 -3.2,-7.8 1,-2.3 3.2,-3.7 5.5,-3.7 0.8,0 1.5,0.1 2.3,0.5 l 46.8,19.1 c 3,1.2 4.5,4.7 3.2,7.8 z m -4,-6 c -2,-0.8 -4.4,0.1 -5.2,2.2 -0.8,2 0.1,4.4 2.2,5.2 2,0.8 4.4,-0.1 5.2,-2.2 0.8,-2 -0.1,-4.4 -2.2,-5.2 z"
       class="st2" /></g></g><g
   transform="translate(-100.9859,-7.4134965)"
   id="g1648"
   class="st0"><g
     id="g1646"
     class="st1"><defs
       id="defs1639"><rect
         height="100"
         width="100"
         id="rect1941"
         x="0"
         y="0" /></defs><clipPath
       id="am"><use
         id="use1641"
         overflow="visible"
         xlink:href="#v"
         x="0"
         y="0"
         width="100%"
         height="100%" /></clipPath><path
       id="path1644"
       clip-path="url(#am)"
       d="m 66,9 c 1.1,0 2,0.9 2,2 v 10 c 0,1.1 -0.9,2 -2,2 H 53 52.2 L 51.6,23.5 44,30.3 V 25 23 h -2 -6 c -1.1,0 -2,-0.9 -2,-2 V 11 C 34,9.9 34.9,9 36,9 H 66 M 66,7 H 36 c -2.2,0 -4,1.8 -4,4 v 10 c 0,2.2 1.8,4 4,4 h 6 v 5.3 c 0,1.2 1,2 2,2 0.5,0 0.9,-0.2 1.3,-0.5 L 53,25 h 13 c 2.2,0 4,-1.8 4,-4 V 11 C 70,8.8 68.2,7 66,7 Z M 28.8,35.6 c 4.4,0 8,3.6 8,8 0,4.4 -3.6,8 -8,8 -4.4,0 -8,-3.6 -8,-8 0,-4.4 3.6,-8 8,-8 m 0,-2 c -5.5,0 -10,4.5 -10,10 0,5.5 4.5,10 10,10 5.5,0 10,-4.5 10,-10 0,-5.5 -4.4,-10 -10,-10 z m 0,29.4 c 8.5,0 14.8,8.7 14.8,16.5 0,3.7 -1.4,6.6 -4.1,8.6 C 37,90 33.3,91 28.8,91 24.3,91 20.7,90 18.1,88.1 15.4,86.1 14,83.2 14,79.5 14,71.7 20.3,63 28.8,63 m 0,-2 C 19.5,61 12,70.2 12,79.5 12,88.8 19.5,93 28.8,93 38.1,93 45.6,88.8 45.6,79.5 45.6,70.2 38.1,61 28.8,61 Z M 70.2,35.6 c 4.4,0 8,3.6 8,8 0,4.4 -3.6,8 -8,8 -4.4,0 -8,-3.6 -8,-8 0,-4.4 3.5,-8 8,-8 m 0,-2 c -5.5,0 -10,4.5 -10,10 0,5.5 4.5,10 10,10 5.5,0 10,-4.5 10,-10 0,-5.5 -4.5,-10 -10,-10 z m 0,29.4 c 8.5,0 14.8,8.7 14.8,16.5 0,3.7 -1.4,6.6 -4.1,8.6 C 78.3,90 74.6,91 70.2,91 65.8,91 62.1,90 59.5,88.1 56.8,86.1 55.4,83.2 55.4,79.5 55.3,71.7 61.7,63 70.2,63 m 0,-2 C 60.9,61 53.4,70.2 53.4,79.5 53.4,88.8 60.9,93 70.2,93 79.5,93 87,88.8 87,79.5 87,70.2 79.5,61 70.2,61 Z M 41,13 c -1.7,0 -3,1.3 -3,3 0,1.7 1.3,3 3,3 1.7,0 3,-1.3 3,-3 0,-1.7 -1.3,-3 -3,-3 z m 10,0 c -1.7,0 -3,1.3 -3,3 0,1.7 1.3,3 3,3 1.7,0 3,-1.3 3,-3 0,-1.7 -1.3,-3 -3,-3 z m 10,0 c -1.7,0 -3,1.3 -3,3 0,1.7 1.3,3 3,3 1.7,0 3,-1.3 3,-3 0,-1.7 -1.3,-3 -3,-3 z"
       class="st3" /></g></g><g
   transform="translate(-100.9859,-7.4134965)"
   id="g1660"
   class="st0"><g
     id="g1658"
     class="st1"><defs
       id="defs1651"><rect
         height="100"
         width="100"
         id="rect1949"
         x="0"
         y="0" /></defs><clipPath
       id="al"><use
         id="use1653"
         overflow="visible"
         xlink:href="#u"
         x="0"
         y="0"
         width="100%"
         height="100%" /></clipPath><path
       id="path1656"
       clip-path="url(#al)"
       d="m 75,77.3 c -0.2,0 -0.4,0 -0.6,0.1 -1.7,0.6 -3.1,1.7 -4.1,3.2 C 69.6,80.3 68.8,80.1 68,79.8 V 69.3 c 0,-1.1 -0.9,-2 -2,-2 -0.2,0 -0.4,0 -0.6,0.1 -1.7,0.6 -3.1,1.7 -4.1,3.2 C 55.5,68.5 47,67 44,67 39.6,67 35.5,70.2 35,74.2 33.7,74 32.7,74 32,74 c -4.7,0 -9,3.6 -9,8 0,2.2 1.1,4.2 2.7,5.7 1.7,1.4 3.9,2.3 6.3,2.3 2.2,0 7.6,-0.8 12.6,-2.2 0.5,1.1 1.2,2 2.1,2.8 1.7,1.4 3.9,2.3 6.3,2.3 3,0 11.5,-1.5 17.3,-3.7 1,1.5 2.4,2.6 4.1,3.2 0.2,0.1 0.4,0.1 0.6,0.1 1.1,0 2,-0.9 2,-2 V 79.3 c 0,-1.1 -0.9,-2 -2,-2 z m 0,7.6 v 0.3 1.7 3.8 C 73.9,90.3 72.9,89.6 72.2,88.6 72,88.3 71.8,88.1 71.7,87.8 71.5,87.5 71.4,87.2 71.3,86.9 71.1,86.2 71,85.6 71,85 c 0,-0.6 0.1,-1.2 0.3,-1.8 0.1,-0.3 0.2,-0.6 0.4,-0.9 0.1,-0.3 0.3,-0.6 0.5,-0.8 0.7,-1 1.7,-1.7 2.8,-2.1 v 3.8 z m -10,4 C 60.2,90.2 55,91 53,91 50.2,91 47.7,89.4 46.6,87.3 46.4,87 46.3,86.7 46.2,86.4 46.1,86.1 46,85.8 46,85.4 c 0,-0.1 0,-0.2 0,-0.3 0,-0.8 0.2,-1.5 0.5,-2.2 0.2,-0.4 0.4,-0.7 0.7,-1 0.3,-0.3 0.6,-0.7 0.9,-1 0.1,-0.1 0.2,-0.2 0.4,-0.3 0.3,-0.2 0.6,-0.4 0.9,-0.6 0,0 0.1,-0.1 0.2,-0.1 0.4,-0.2 0.7,-0.4 1.1,-0.5 0.1,0 0.1,0 0.2,-0.1 0.5,-0.2 1,-0.3 1.5,-0.3 0,0 0,0 0,0 0.2,0 0.5,0 0.7,0 0.3,0 0.6,0 1,0 0.3,0 0.6,0 1,0.1 0,0 0.1,0 0.1,0 v 0 c 0.3,0 0.6,0.1 0.9,0.1 0.5,0.1 1.1,0.1 1.7,0.2 0,0 0,0 0,0 0.7,0.1 1.4,0.2 2.1,0.4 0.7,0.1 1.5,0.3 2.3,0.5 0.7,0.2 1.4,0.3 2.1,0.5 0.3,0.1 0.6,0.1 0.8,0.2 0.5,0.1 1,0.3 1.5,0.4 0.4,0.1 0.7,0.2 1.1,0.3 0.7,0.2 1.2,0.4 1.8,0.6 -0.4,0.9 -0.5,1.8 -0.5,2.7 0,0.9 0.1,1.8 0.4,2.5 -1.2,0.5 -2.6,1 -4.4,1.4 z m -21,-3 C 39.2,87.2 34,88 32,88 c -3.7,0 -7,-2.8 -7,-6 0,-3.2 3.3,-6 7,-6 0.7,0 1.8,0.1 3.1,0.3 0.3,1.7 1.3,3.2 2.6,4.4 1.7,1.4 3.9,2.3 6.3,2.3 0.1,0 0.2,0 0.3,0 -0.2,0.6 -0.3,1.3 -0.3,2 0,0.3 0,0.6 0,0.9 0,0 0,0 0,0 z M 37,75 c 0,-0.2 0,-0.3 0,-0.5 0.3,-3 3.4,-5.5 7,-5.5 2,0 7.2,0.8 12,2.1 1.8,0.5 3.2,0.9 4.4,1.4 -0.3,0.7 -0.4,1.6 -0.4,2.5 0,0.9 0.1,1.8 0.4,2.5 -0.2,0.1 -0.5,0.2 -0.8,0.3 v 0 C 58.3,77.6 57,77.4 56,77.2 c -0.3,0 -0.7,-0.1 -1,-0.1 -0.4,0 -0.7,-0.1 -1,-0.1 -0.4,0 -0.7,0 -1,0 -0.1,0 -0.2,0 -0.3,0 -0.6,0 -1.2,0.1 -1.8,0.2 -0.5,0.1 -1,0.3 -1.4,0.5 -0.1,0 -0.2,0.1 -0.2,0.1 -0.3,0.2 -0.7,0.3 -1,0.5 -0.4,0.2 -0.7,0.4 -1,0.7 -0.7,0.5 -1.3,1.2 -1.8,1.9 -0.5,0 -1,0.1 -1.3,0.1 -3.1,0 -5.8,-1.9 -6.7,-4.4 C 37.4,76.3 37.3,75.9 37.3,75.5 37,75.3 37,75.2 37,75 Z m 26.2,-3.6 c 0.7,-1 1.7,-1.7 2.8,-2.1 v 3.8 1.7 0.3 1.7 2.4 c -0.9,-0.3 -1.9,-0.5 -2.8,-0.7 v 0 C 63,78.2 62.8,78 62.7,77.7 62.5,77.4 62.4,77.1 62.3,76.8 62.1,76.2 62,75.6 62,75 c 0,-0.6 0.1,-1.2 0.3,-1.8 0.1,-0.3 0.2,-0.6 0.4,-0.9 0.1,-0.3 0.3,-0.6 0.5,-0.9 z M 54.7,83 c 0.2,0.3 0.3,0.7 0.3,1 0,0.7 -0.4,1.4 -1,1.7 -0.3,0.2 -0.6,0.3 -1,0.3 -0.6,0 -1.1,-0.2 -1.4,-0.6 -0.2,-0.2 -0.4,-0.5 -0.5,-0.9 0,-0.2 -0.1,-0.3 -0.1,-0.5 0,-0.2 0,-0.4 0.1,-0.6 0.3,-0.8 1,-1.3 1.9,-1.4 0,0 0,0 0,0 0.3,0 0.7,0.1 1,0.2 0,0 0,0 0,0 0.3,0.2 0.5,0.5 0.7,0.8 z m -4.4,-2.8 c 0,0 0,0 0,0 0,0 0,0 0,0 0,0 0,0 0,0 z M 42,74 c 0,-1.1 0.9,-2 2,-2 1.1,0 2,0.9 2,2 0,1.1 -0.9,2 -2,2 v 0 C 43.7,76 43.4,75.9 43.1,75.8 42.4,75.5 42,74.8 42,74 Z m -8,7 c 0,1.1 -0.9,2 -2,2 -1.1,0 -2,-0.9 -2,-2 0,-1.1 0.9,-2 2,-2 1.1,0 2,0.9 2,2 z M 48,49 H 43 V 59 H 33 V 49 H 28 L 38,39 Z M 72,51 62,61 52,51 h 5 V 41 h 10 v 10 z m 0,-40 c -1.5,0 -2.9,0.3 -4.1,1 V 8 c 0,-0.5 -0.5,-1 -1,-1 -0.5,0 -1,0.5 -1,1 v 4 c -1.2,-0.6 -2.6,-1 -4.1,-1 -3.3,0 -6.2,1.6 -7.4,5 -1.3,0.1 -2.5,0.4 -3.6,0.9 v -4 c 0,-0.5 -0.5,-1 -1,-1 -0.5,0 -1,0.5 -1,1 v 4 c -1.2,-0.6 -2.6,-1 -4.1,-1 -0.2,0 -0.3,0 -0.5,0 C 43,12.5 40.2,11 36.9,11 35.4,11 34,11.3 32.8,12 V 8 c 0,-0.5 -0.5,-1 -1,-1 -0.5,0 -1,0.5 -1,1 v 4 c -1.2,-0.6 -2.5,-0.9 -4,-0.9 -4.4,0 -7.9,2.7 -7.9,8.8 0,6.1 5,13.2 9.4,13.2 1.1,0 2,-0.4 2.9,-1.2 0.2,-0.2 0.5,-0.3 0.7,-0.3 0.2,0 0.5,0.1 0.7,0.3 0.8,0.8 1.8,1.2 2.9,1.2 1.1,0 2.2,-0.4 3.3,-1.2 1.9,3.4 4.8,6.1 7.4,6.1 1.1,0 2.1,-0.4 2.9,-1.2 0.2,-0.2 0.5,-0.3 0.7,-0.3 0.2,0 0.5,0.1 0.7,0.3 0.8,0.8 1.8,1.2 2.9,1.2 2.6,0 5.4,-2.5 7.2,-5.7 0.8,0.5 1.7,0.7 2.5,0.7 1.1,0 2.1,-0.4 2.9,-1.2 0.2,-0.2 0.5,-0.3 0.7,-0.3 0.2,0 0.5,0.1 0.7,0.3 0.8,0.8 1.8,1.2 2.9,1.2 4.4,0 9.4,-7.1 9.4,-13.2 C 79.7,13.7 76.4,11 72,11 Z m -1.5,20 c -0.6,0 -1,-0.2 -1.5,-0.6 -0.6,-0.5 -1.3,-0.8 -2.1,-0.8 -0.8,0 -1.5,0.3 -2.1,0.8 -0.5,0.4 -1,0.6 -1.5,0.6 -0.5,0 -1.1,-0.2 -1.7,-0.5 0.8,-1.8 1.3,-3.8 1.3,-5.7 0,-5.3 -2.7,-8.1 -6.3,-8.7 0.9,-2 2.7,-3.1 5.3,-3.1 1.5,0 2.8,0.4 3.8,1.2 l 1.2,1 1.2,-1 c 1,-0.8 2.3,-1.2 3.8,-1.2 3.8,0 5.9,2.4 5.9,6.8 0.1,5.3 -4.3,11.2 -7.3,11.2 z m -11.4,0.1 c -1.5,2.8 -3.8,4.9 -5.6,4.9 -0.6,0 -1,-0.2 -1.5,-0.6 -0.6,-0.5 -1.3,-0.8 -2.1,-0.8 -0.8,0 -1.5,0.3 -2.1,0.8 -0.5,0.4 -1,0.6 -1.5,0.6 -1.9,0 -4.3,-2.3 -5.9,-5.4 -0.2,-0.3 -0.3,-0.6 -0.5,-1 -0.1,-0.3 -0.3,-0.7 -0.4,-1 -0.4,-1.2 -0.7,-2.5 -0.7,-3.8 0,-3.6 1.4,-5.8 4,-6.5 0.3,-0.1 0.6,-0.2 1,-0.2 0.3,-0.1 0.7,-0.1 1,-0.1 1.5,0 2.8,0.4 3.8,1.2 l 1.2,1 1.2,-1 c 0.8,-0.6 1.7,-1 2.9,-1.1 0.3,0 0.6,-0.1 1,-0.1 0,0 0,0 0.1,0 0.3,0 0.7,0 1,0.1 3.2,0.4 4.9,2.8 4.9,6.7 0,1.5 -0.3,3 -0.9,4.4 -0.1,0.3 -0.3,0.6 -0.4,1 -0.1,0.3 -0.3,0.6 -0.5,0.9 z m -23.5,0 c -0.6,0 -1,-0.2 -1.5,-0.6 -0.6,-0.5 -1.3,-0.8 -2.1,-0.8 -0.8,0 -1.5,0.3 -2.1,0.8 -0.5,0.4 -0.9,0.6 -1.5,0.6 -3,0 -7.4,-5.9 -7.4,-11.2 0,-4.4 2.1,-6.8 5.9,-6.8 1.5,0 2.8,0.4 3.8,1.2 l 1.2,1 1.2,-1 c 1,-0.8 2.3,-1.2 3.8,-1.2 2.6,0 4.4,1.1 5.3,3.2 -3.1,0.9 -5.4,3.6 -5.4,8.5 0,1.7 0.4,3.6 1.1,5.3 -0.7,0.6 -1.5,1 -2.3,1 z"
       class="st4" /></g></g><g
   transform="translate(-100.9859,-7.4134965)"
   id="g1672"
   class="st0"><g
     id="g1670"
     class="st1"><defs
       id="defs1663"><rect
         height="100"
         width="100"
         id="rect1957"
         x="0"
         y="0" /></defs><clipPath
       id="ak"><use
         id="use1665"
         overflow="visible"
         xlink:href="#t"
         x="0"
         y="0"
         width="100%"
         height="100%" /></clipPath><path
       id="path1668"
       clip-path="url(#ak)"
       d="M 86,35 V 27 C 86,18.6 72.4,12 55,12 37.6,12 24,18.6 24,27 v 7.9 C 17.8,37.6 14,41.6 14,46 v 8 c 0,4.5 3.8,8.4 10,11.1 V 73 c 0,8.4 13.6,15 31,15 17.4,0 31,-6.6 31,-15 V 65 C 86,60.5 82.2,56.6 76,53.9 V 46.1 C 82.2,43.4 86,39.5 86,35 Z m -2,38 c 0,2 -1.1,3.9 -3,5.7 v -5.4 c 0.1,-0.1 0.2,-0.2 0.3,-0.3 1,-0.8 1.9,-1.7 2.7,-2.6 z M 26,70.4 c 0.7,0.9 1.6,1.8 2.7,2.6 0.1,0.1 0.2,0.2 0.3,0.3 v 5.4 C 27.1,77 26,75.1 26,73 Z m 5,9.8 v -5.6 c 0.9,0.5 1.9,1 3,1.5 v 5.7 c -1.1,-0.5 -2.1,-1 -3,-1.6 z m 5,2.5 v -5.8 c 1,0.4 2,0.7 3,1 v 5.9 c -1.1,-0.4 -2.1,-0.7 -3,-1.1 z m 5,1.6 v -5.9 c 1,0.2 2,0.4 3,0.6 v 6 c -1,-0.2 -2,-0.4 -3,-0.7 z m 5,1 v -6 c 1,0.1 2,0.2 3,0.4 v 6 c -1,-0.1 -2,-0.2 -3,-0.4 z m 8,0.7 c -1,0 -2,-0.1 -3,-0.1 v -6 C 52,80 53,80 54,80 Z M 79,74.6 v 5.6 c -0.9,0.6 -1.9,1.1 -3,1.7 v -5.7 c 1.1,-0.6 2.1,-1.1 3,-1.6 z m -5,2.3 v 5.8 c -0.9,0.4 -1.9,0.7 -3,1.1 v -5.9 c 1,-0.3 2,-0.6 3,-1 z m -5,1.5 v 5.9 c -1,0.2 -2,0.5 -3,0.7 v -5.9 c 1,-0.2 2,-0.4 3,-0.7 z m -5,1 v 6 c -1,0.1 -2,0.3 -3,0.4 v -6 c 1,-0.2 2,-0.3 3,-0.4 z m -5,0.5 v 6 C 58,86 57,86 56,86 v -6 c 1,0 2,-0.1 3,-0.1 z M 77.7,73 c -5.4,3 -13.6,5 -22.7,5 -9.1,0 -17.3,-2 -22.7,-5 -3.5,-2 -5.8,-4.4 -6.2,-7 5.2,1.9 11.7,3 18.9,3 16,0 28.8,-5.6 30.7,-13 5.1,2.4 8.3,5.5 8.3,9 0,3 -2.4,5.8 -6.3,8 z M 69,55.6 v 5.6 c -0.9,0.6 -1.9,1.1 -3,1.7 v -5.7 c 1.1,-0.6 2.1,-1.1 3,-1.6 z m -5,2.3 v 5.8 c -0.9,0.4 -1.9,0.7 -3,1.1 v -5.9 c 1,-0.3 2,-0.6 3,-1 z m -5,1.5 v 5.9 c -1,0.2 -2,0.5 -3,0.7 v -5.9 c 1,-0.2 2,-0.4 3,-0.7 z m -5,1 v 6 c -1,0.1 -2,0.3 -3,0.4 v -6 c 1,-0.2 2,-0.3 3,-0.4 z m -5,0.5 v 6 C 48,67 47,67 46,67 v -6 c 1,0 2,-0.1 3,-0.1 z m -23,0.5 v -1.8 -1.7 c 0.4,0.1 0.8,0.3 1.1,0.4 0.4,0.1 0.7,0.2 1.1,0.4 0.3,0.1 0.5,0.2 0.8,0.2 v 0.4 5.4 c -1,-0.3 -2,-0.6 -2.9,-1 0,0 -0.1,0 -0.1,-0.1 z m 5,3.9 v -5.9 c 1,0.2 2,0.4 3,0.6 v 6 c -1,-0.2 -2,-0.4 -3,-0.7 z m 5,1 v -6 c 1,0.1 2,0.2 3,0.4 v 6 c -1,-0.1 -2,-0.2 -3,-0.4 z m 8,0.7 c -1,0 -2,-0.1 -3,-0.1 v -6 C 42,61 43,61 44,61 Z M 24,57.1 v 5.7 c -1.1,-0.5 -2.1,-1.1 -3,-1.7 v -5.6 c 0.9,0.6 1.9,1.1 3,1.6 z m -8,-5.7 c 0.7,0.9 1.6,1.8 2.7,2.6 0.1,0.1 0.2,0.2 0.3,0.3 v 5.4 C 17.1,58 16,56.1 16,54 Z M 70.6,52 c -0.3,0.3 -0.7,0.5 -1,0.8 -0.4,0.3 -0.8,0.5 -1.2,0.8 -0.3,0.2 -0.5,0.3 -0.8,0.5 -5.4,3 -13.6,5 -22.7,5 -4.8,0 -9.4,-0.6 -13.4,-1.5 -0.5,-0.1 -0.9,-0.2 -1.3,-0.3 -0.4,-0.1 -0.8,-0.2 -1.2,-0.4 -2.5,-0.8 -4.7,-1.7 -6.6,-2.8 -3.9,-2.2 -6.3,-5 -6.3,-8 0,-3.4 3.2,-6.6 8.3,-9 2,7.4 14.8,13 30.7,13 7.2,0 13.7,-1.1 18.9,-3 -0.4,1.7 -1.6,3.4 -3.4,4.9 z M 55,14 c 15.7,0 29,5.9 29,13 0,3 -2.4,5.8 -6.3,8 -1.9,1.1 -4.1,2 -6.6,2.8 -0.4,0.1 -0.8,0.2 -1.2,0.4 -0.4,0.1 -0.9,0.2 -1.3,0.3 C 64.6,39.5 60,40 55.2,40 46.1,40 37.9,38 32.5,35 32.2,34.8 32,34.7 31.7,34.5 31.3,34.3 30.9,34 30.5,33.7 30.1,33.4 29.8,33.2 29.5,32.9 27.4,31.1 26.1,29.1 26.1,26.9 26,19.9 39.3,14 55,14 Z m 29,21 c 0,2 -1.1,3.9 -3,5.7 v -5.4 c 0.1,-0.1 0.2,-0.2 0.3,-0.3 1,-0.8 1.9,-1.7 2.7,-2.6 z m -10,5.6 v 1.8 2.3 c 0,0 -0.1,0 -0.1,0.1 -0.9,0.4 -1.9,0.7 -2.9,1 V 40.4 40 c 0.3,-0.1 0.5,-0.2 0.8,-0.2 0.4,-0.1 0.7,-0.2 1.1,-0.4 0.4,-0.1 0.8,-0.3 1.1,-0.4 z M 54,42 v 6 c -1,0 -2,-0.1 -3,-0.1 v -6 c 1,0 2,0.1 3,0.1 z m -5,-0.3 v 6 c -1,-0.1 -2,-0.2 -3,-0.4 v -6 c 1,0.2 2,0.3 3,0.4 z M 44,41.1 V 47 c -1,-0.2 -2,-0.4 -3,-0.7 v -5.9 c 1,0.3 2,0.5 3,0.7 z m -5,-1.2 v 5.9 c -1.1,-0.3 -2.1,-0.7 -3,-1.1 v -5.8 c 1,0.4 2,0.7 3,1 z m -5,-1.8 v 5.7 c -1.1,-0.5 -2.1,-1.1 -3,-1.7 v -5.6 c 0.9,0.6 1.9,1.1 3,1.6 z m 35,2.3 v 5.9 c -1,0.2 -2,0.5 -3,0.7 v -5.9 c 1,-0.2 2,-0.4 3,-0.7 z m -5,1 v 6 c -1,0.1 -2,0.3 -3,0.4 v -6 c 1,-0.2 2,-0.3 3,-0.4 z m -5,0.5 v 6 C 58,48 57,48 56,48 v -6 c 1,0 2,-0.1 3,-0.1 z m 17,-3.8 c 1.1,-0.5 2.1,-1 3,-1.5 v 5.6 c -0.9,0.6 -1.9,1.1 -3,1.7 z M 26,32.4 c 0.3,0.4 0.7,0.9 1.1,1.3 0.3,0.3 0.6,0.5 0.9,0.8 0.2,0.2 0.4,0.4 0.7,0.5 0.1,0.1 0.2,0.2 0.3,0.2 0,0 0,0 0,0 v 5.4 C 27.5,39.2 26.5,37.7 26.1,36.2 26,35.9 26,35.5 26,35.1 26,35 26,35 26,34.9 V 34 Z M 74,54 c 0,0.1 0,0.1 0,0.2 0,0.4 -0.1,0.7 -0.1,1.1 -0.3,1.6 -1.3,3.1 -2.9,4.4 v -5.4 c 0,0 0,0 0,0 0.1,-0.1 0.2,-0.2 0.3,-0.2 0.2,-0.2 0.4,-0.4 0.7,-0.5 0.3,-0.3 0.6,-0.5 0.9,-0.8 0.4,-0.4 0.8,-0.8 1.1,-1.3 v 1.7 z"
       class="st5" /></g></g><g
   transform="translate(-100.9859,-7.4134965)"
   id="g1684"
   class="st0"><g
     id="g1682"
     class="st1"><defs
       id="defs1675"><rect
         height="99.699997"
         width="99.699997"
         id="rect1965"
         x="0"
         y="0" /></defs><clipPath
       id="aj"><use
         id="use1677"
         overflow="visible"
         xlink:href="#s"
         x="0"
         y="0"
         width="100%"
         height="100%" /></clipPath><path
       id="path1680"
       clip-path="url(#aj)"
       d="m 15,22 c 0,-0.6 0.4,-1 1,-1 4.6,0 8.9,1.5 12.4,4.1 -0.5,0.5 -1,0.9 -1.4,1.4 C 23.9,24.3 20.1,23 16,23 15.4,23 15,22.6 15,22 Z m 1,5 c 3.2,0 6.1,1 8.6,2.7 0.4,-0.6 0.7,-1.1 1.1,-1.6 C 23,26.1 19.6,25 16,25 c -0.6,0 -1,0.4 -1,1 0,0.6 0.4,1 1,1 z m 6,8.3 C 20.4,33.9 18.3,33 16,33 c -0.6,0 -1,0.4 -1,1 0,0.6 0.4,1 1,1 2.2,0 4.1,1 5.4,2.6 0.2,-0.8 0.4,-1.5 0.6,-2.3 z M 16,31 c 2.5,0 4.8,0.9 6.7,2.3 0.3,-0.6 0.5,-1.2 0.9,-1.9 C 21.4,29.9 18.8,29 16,29 c -0.6,0 -1,0.4 -1,1 0,0.6 0.4,1 1,1 z m 6.1,42.1 2.8,-23 C 25,49.5 24.5,49 23.9,49 v 0 c -0.5,0 -0.9,0.4 -1,0.9 l -2.8,23 c -0.1,0.6 0.4,1.1 1,1.1 v 0 c 0.5,0 0.9,-0.4 1,-0.9 z M 28,73 29,50 c 0,-0.6 -0.4,-1 -1,-1 v 0 c -0.5,0 -1,0.4 -1,1 l -1,23 c 0,0.6 0.4,1 1,1 v 0 c 0.6,0 1,-0.4 1,-1 z m 6,0 -1,-23 c 0,-0.5 -0.5,-1 -1,-1 v 0 c -0.6,0 -1,0.5 -1,1 l 1,23 c 0,0.5 0.5,1 1,1 v 0 c 0.5,0 1,-0.5 1,-1 z m 5.9,-0.1 -2.8,-23 C 37,49.4 36.6,49 36.1,49 v 0 c -0.6,0 -1.1,0.5 -1,1.1 l 2.8,23 c 0.1,0.5 0.5,0.9 1,0.9 v 0 c 0.6,0 1,-0.5 1,-1.1 z M 25,42 c 0,-10.5 8.5,-19 19,-19 0.6,0 1,-0.4 1,-1 0,-0.6 -0.4,-1 -1,-1 -11.6,0 -21,9.4 -21,21 0,0.6 0.4,1 1,1 0.6,0 1,-0.4 1,-1 z m 4,0 c 0,-8.3 6.7,-15 15,-15 0.6,0 1,-0.4 1,-1 0,-0.6 -0.4,-1 -1,-1 -9.4,0 -17,7.6 -17,17 0,0.6 0.4,1 1,1 0.6,0 1,-0.4 1,-1 z m 4,0 c 0,-6.1 4.9,-11 11,-11 0.6,0 1,-0.4 1,-1 0,-0.6 -0.4,-1 -1,-1 -7.2,0 -13,5.8 -13,13 0,0.6 0.4,1 1,1 0.6,0 1,-0.4 1,-1 z m 4,0 c 0,-3.9 3.1,-7 7,-7 0.6,0 1,-0.4 1,-1 0,-0.6 -0.4,-1 -1,-1 -5,0 -9,4 -9,9 0,0.6 0.4,1 1,1 0.6,0 1,-0.4 1,-1 z m 2,4 v 0 c 0,-0.6 -0.4,-1 -1,-1 H 22 c -0.6,0 -1,0.4 -1,1 v 0 c 0,0.6 0.4,1 1,1 h 16 c 0.6,0 1,-0.4 1,-1 z M 93,33 v 2 c 0,3.1 -1.4,5 -3.6,5 -0.3,0 -0.6,0 -0.9,-0.1 v 0 l -1.4,7.6 c -0.2,1.6 -1.5,3 -3.2,3.3 l -0.1,0.4 C 83.4,55 80.6,58 77,58.8 V 68 c 0,2.2 -1.8,4 -4,4 -2.2,0 -4,-1.8 -4,-4 V 59 H 55.8 L 53,61.8 V 68 c 0,2.2 -1.8,4 -4,4 -2.2,0 -4,-1.8 -4,-4 V 55 53 45.1 C 45,41.2 48.2,38 52.1,38 H 72.6 C 72.2,37.2 72,36.2 72,35 v -2 h 2 2 v -1 c 0,-1.7 1.3,-3 3,-3 1.7,0 3,1.3 3,3 h 1 c 0,-1.7 1.3,-3 3,-3 1.7,0 3,1.3 3,3 v 1 h 2 z M 81.9,51 c -2,0 -3.8,-1.5 -4,-3.5 L 76.5,40 H 76 c -0.1,0 -0.3,0 -0.4,0 -0.1,0 -0.3,0 -0.4,0 H 52.1 C 49.3,40 47,42.3 47,45.1 v 9.9 0 13 c 0,1.1 0.9,2 2,2 1.1,0 2,-0.9 2,-2 v -7 l 4,-4 h 16 v 11 c 0,1.1 0.9,2 2,2 1.1,0 2,-0.9 2,-2 v -11 0 c 3.5,0 6.4,-2.6 6.9,-6 z M 91,35 h -4 v -1 -2 c 0,-0.6 -0.4,-1 -1,-1 -0.6,0 -1,0.4 -1,1 v 2 h -5 v -2 c 0,-0.6 -0.4,-1 -1,-1 -0.6,0 -1,0.4 -1,1 v 2 1 h -4 c 0,1.3 0.4,2.8 1.3,3 H 76 l 2,-1 0.2,1 v 0 l 0.3,1.7 1.3,7.5 v 0 0 c 0.1,1 1.1,1.7 2.1,1.7 h 0.4 0.7 c 1,0 2,-0.8 2.1,-1.8 L 87,37 l 2,1 c 0.1,0 0.3,0 0.4,0 1.2,0 1.6,-1.6 1.6,-3 z"
       class="st6" /></g></g><g
   transform="translate(-100.9859,-7.4134965)"
   id="g1712"
   class="st0"><g
     id="g1710"
     class="st1"><defs
       id="defs1687"><rect
         height="100"
         width="100"
         id="rect1973"
         x="0"
         y="0" /></defs><clipPath
       id="c"><use
         id="use1689"
         overflow="visible"
         xlink:href="#r"
         x="0"
         y="0"
         width="100%"
         height="100%" /></clipPath><g
       id="g1694"
       clip-path="url(#c)"
       class="st7"><path
         id="path1692"
         d="m 50.1,73.2 c -0.3,0 -0.7,0.2 -0.9,0.5 L 46.7,78 h 6.8 L 51,73.7 c -0.2,-0.4 -0.5,-0.5 -0.9,-0.5 z" /></g><g
       id="g1698"
       clip-path="url(#c)"
       class="st7"><path
         id="path1696"
         d="m 22.1,46.6 v 6.8 l 4.4,-2.5 c 0.7,-0.4 0.7,-1.3 0,-1.7 z" /></g><g
       id="g1702"
       clip-path="url(#c)"
       class="st7"><path
         id="path1700"
         d="m 78.2,46.6 -4.4,2.5 c -0.7,0.4 -0.7,1.3 0,1.7 l 4.4,2.5 z" /></g><path
       id="path1704"
       clip-path="url(#c)"
       d="M 50,34"
       class="st8" /><path
       id="path1706"
       clip-path="url(#c)"
       d="M 50,49"
       class="st8" /><path
       id="path1708"
       clip-path="url(#c)"
       d="M 42,63.9 56.9,54 58,36.1 43.1,46 Z M 46.5,48 54,43.1 53.5,52 46,56.9 Z M 50,20 C 33.4,20 20,33.4 20,50 20,66.6 33.4,80 50,80 66.6,80 80,66.6 80,50 80,33.4 66.6,20 50,20 Z m 0,57 C 35.1,77 23,64.9 23,50 23,36.2 33.4,24.8 46.8,23.2 l 2.5,4.3 c 0.4,0.7 1.3,0.7 1.7,0 l 2.5,-4.3 C 66.7,24.9 77,36.3 77,50 77,64.9 64.9,77 50,77 Z"
       class="st7" /></g></g><g
   transform="translate(-100.9859,-7.4134965)"
   id="g1724"
   class="st0"><g
     id="g1722"
     class="st1"><defs
       id="defs1715"><rect
         height="100"
         width="100"
         id="rect1989"
         x="0"
         y="0" /></defs><clipPath
       id="ai"><use
         id="use1717"
         overflow="visible"
         xlink:href="#q"
         x="0"
         y="0"
         width="100%"
         height="100%" /></clipPath><path
       id="path1720"
       clip-path="url(#ai)"
       d="M 64.9,39.1 C 66.2,37.8 67,36 67,34.2 V 30 c 0,-3.3 -2.7,-6 -6,-6 H 39 c -3.3,0 -6,2.7 -6,6 v 4.1 c 0,1.9 0.7,3.6 2.1,4.9 l 10.2,10.2 c 0.4,0.4 0.4,1 0,1.4 L 35.1,60.9 C 33.7,62.3 33,64 33,65.9 V 70 c 0,3.3 2.7,6 6,6 h 22 c 3.3,0 6,-2.7 6,-6 V 65.9 C 67,64 66.3,62.3 64.9,61 L 54.7,50.7 c -0.4,-0.4 -0.4,-1 0,-1.4 z m -11.6,13 10.2,10.2 c 0.9,0.9 1.5,2.2 1.5,3.5 V 70 c 0,2.2 -1.8,4 -4,4 H 39 c -2.2,0 -4,-1.8 -4,-4 v -4.1 c 0,-1.3 0.5,-2.6 1.5,-3.5 L 46.7,52.2 c 1.2,-1.2 1.2,-3.1 0,-4.2 L 36.5,37.6 C 35.6,36.7 35,35.4 35,34.1 V 30 c 0,-2.2 1.8,-4 4,-4 h 22 c 2.2,0 4,1.8 4,4 v 4.1 c 0,1.3 -0.5,2.6 -1.5,3.5 L 53.3,47.9 c -1.2,1.1 -1.2,3.1 0,4.2 z M 51.4,55.4 61,65 c 0.7,0.7 1,1.6 1,2.5 V 69 c 0,1.1 -0.9,2 -2,2 H 40 c -1.1,0 -2,-0.9 -2,-2 v -1.5 c 0,-0.9 0.4,-1.8 1,-2.5 l 9.6,-9.6 c 0.8,-0.8 2,-0.8 2.8,0 z M 55,41.5 50.8,45.6 c -0.5,0.4 -1.2,0.4 -1.6,0 L 45,41.5 c -0.7,-0.7 -0.2,-2 0.8,-2 h 8.3 c 1.1,0.1 1.6,1.3 0.9,2 z"
       class="st9" /></g></g><g
   transform="translate(-100.9859,-7.4134965)"
   id="g1738"
   class="st0"><g
     id="g1736"
     class="st1"><defs
       id="defs1727"><rect
         height="100"
         width="100"
         id="rect1997"
         x="0"
         y="0" /></defs><clipPath
       id="ah"><use
         id="use1729"
         overflow="visible"
         xlink:href="#p"
         x="0"
         y="0"
         width="100%"
         height="100%" /></clipPath><g
       id="g1734"
       clip-path="url(#ah)"
       class="st10"><path
         id="path1732"
         d="M 77,20 H 23 c -2.2,0 -4,1.8 -4,4 v 54 c 0,2.2 1.8,4 4,4 h 54 c 2.2,0 4,-1.8 4,-4 V 24 c 0,-2.2 -1.8,-4 -4,-4 z m 2,58 c 0,1.1 -0.9,2 -2,2 H 23 c -1.1,0 -2,-0.9 -2,-2 V 24 c 0,-1.1 0.9,-2 2,-2 h 54 c 1.1,0 2,0.9 2,2 z M 28,36.7 26,34 h 6 l -2,2.7 V 44 c 0,0.6 -0.4,1 -1,1 -0.6,0 -1,-0.4 -1,-1 z M 35,44 V 36.7 L 33,34 h 6 l -2,2.7 V 44 c 0,0.6 -0.4,1 -1,1 -0.6,0 -1,-0.4 -1,-1 z M 46,34 44,36.7 V 44 c 0,0.6 -0.4,1 -1,1 -0.6,0 -1,-0.4 -1,-1 V 36.7 L 40,34 Z M 29.7,30 27,32 v -6 l 2.7,2 H 44 c 0.6,0 1,0.4 1,1 0,0.6 -0.4,1 -1,1 z M 74,43 c 0,0.6 -0.4,1 -1,1 H 58.6 L 56,46 v -6 l 2.6,2 H 73 c 0.6,0 1,0.4 1,1 z M 58.7,37 56,39 v -6 l 2.7,2 H 73 c 0.6,0 1,0.4 1,1 0,0.6 -0.4,1 -1,1 z m 0,-7 -2.7,2 v -6 l 2.7,2 H 73 c 0.6,0 1,0.4 1,1 0,0.6 -0.4,1 -1,1 z M 60,57 58,59.6 V 74 c 0,0.6 -0.4,1 -1,1 -0.6,0 -1,-0.4 -1,-1 V 59.6 L 54,57 Z m 7,0 -2,2.7 V 74 c 0,0.6 -0.4,1 -1,1 -0.6,0 -1,-0.4 -1,-1 V 59.7 L 61,57 Z m 7,0 -2,2.7 V 74 c 0,0.6 -0.4,1 -1,1 -0.6,0 -1,-0.4 -1,-1 V 59.7 L 68,57 Z m -29,9 c 0,0.6 -0.4,1 -1,1 H 29.7 L 27,69 v -6 l 2.7,2 H 44 c 0.6,0 1,0.4 1,1 z m 0,7 c 0,0.6 -0.4,1 -1,1 H 29.7 L 27,76 v -6 l 2.7,2 H 44 c 0.6,0 1,0.4 1,1 z M 29.8,60 27,62 v -6 l 2.8,2 H 34 c 0.6,0 1,0.4 1,1 0,0.6 -0.4,1 -1,1 z M 44,58 c 0.6,0 1,0.4 1,1 0,0.6 -0.4,1 -1,1 H 39.7 L 37,62 v -6 l 2.7,2 z M 73,52 H 28 c -0.6,0 -1,-0.4 -1,-1 0,-0.6 0.4,-1 1,-1 h 45 c 0.6,0 1,0.4 1,1 0,0.6 -0.4,1 -1,1 z" /></g></g></g><g
   transform="translate(-100.9859,-7.4134965)"
   id="g1754"
   class="st0"><g
     id="g1752"
     class="st1"><defs
       id="defs1741"><rect
         height="99.800003"
         width="99.800003"
         x="0.1"
         id="rect2006"
         y="0" /></defs><clipPath
       id="b"><use
         id="use1743"
         overflow="visible"
         xlink:href="#o"
         x="0"
         y="0"
         width="100%"
         height="100%" /></clipPath><path
       id="path1746"
       clip-path="url(#b)"
       d="M 45,50 C 45,36.1 49.2,24.5 55.3,20 H 41 c -7.6,0 -14,13.7 -14,30 0,16.3 6.4,30 14,30 H 55.3 C 49.2,75.5 45,63.9 45,50 Z"
       class="st11" /><ellipse
       id="ellipse1748"
       clip-path="url(#b)"
       ry="8"
       rx="3"
       cy="50"
       cx="82"
       class="st11" /><path
       id="path1750"
       clip-path="url(#b)"
       d="M 82,40 H 81 76.2 C 74.1,27.1 68.2,18 61,18 H 41 c -7.2,0 -13.2,9.1 -15.2,22 h -5.3 c -2.9,0 -5,4.3 -5,10 0,5.7 2.1,10 5,10 h 5.3 c 2.1,12.9 8,22 15.2,22 h 20 c 7.2,0 13.2,-9.1 15.2,-22 H 82 c 2.9,0 5,-4.3 5,-10 0,-5.7 -2.1,-10 -5,-10 z M 25.5,58 h -5.1 c -1.2,0 -3,-3.1 -3,-8 0,-4.9 1.8,-8 3,-8 h 5.1 c -0.3,2.5 -0.5,5.2 -0.5,8 0,2.8 0.2,5.5 0.5,8 z M 41,80 C 33.4,80 27,66.3 27,50 27,33.7 33.4,20 41,20 H 55.3 C 49.2,24.5 45,36.1 45,50 c 0,13.9 4.2,25.5 10.3,30 z m 20,0 C 53.4,80 47,66.3 47,50 47,33.7 53.4,20 61,20 c 6,0 11.2,8.5 13.2,20 H 67.8 61 c -2.9,0 -5,4.3 -5,10 0,5.7 2.1,10 5,10 h 6.8 6.4 C 72.2,71.5 67,80 61,80 Z M 78.9,58 H 67.8 61 c -1.2,0 -3,-3.1 -3,-8 0,-4.9 1.8,-8 3,-8 H 67.8 79 c -1.2,1.8 -1.9,4.7 -1.9,8 0,3.3 0.6,6.2 1.8,8 z m 3.1,0 c -1.7,0 -3,-3.6 -3,-8 0,-4.4 1.3,-8 3,-8 1.7,0 3,3.6 3,8 0,4.4 -1.3,8 -3,8 z"
       class="st12" /></g></g><g
   transform="translate(-100.9859,-7.4134965)"
   id="g1766"
   class="st0"><g
     id="g1764"
     class="st1"><defs
       id="defs1757"><rect
         height="100"
         width="100"
         id="rect2016"
         x="0"
         y="0" /></defs><clipPath
       id="ag"><use
         id="use1759"
         overflow="visible"
         xlink:href="#n"
         x="0"
         y="0"
         width="100%"
         height="100%" /></clipPath><path
       id="path1762"
       clip-path="url(#ag)"
       d="M 77,65 H 50 v -5.7 h 27 c 0.5,0 1,-0.5 1,-1 0,-0.6 -0.5,-1 -1,-1 h -3.8 c 0,0 0,-0.1 0,-0.1 L 50,17 v -3 c 0,-1.7 -1.3,-3 -3,-3 -1.7,0 -3,1.3 -3,3 v 51 h -2 c -2.8,0 -5,2.2 -5,5 h -6 c -2.8,0 -5,2.2 -5,5 h -6 c -2.8,0 -5,2.2 -5,5 0,2.8 2.2,5 5,5 h 35 c 2.8,0 5,-2.2 5,-5 h 6 c 2.8,0 5,-2.2 5,-5 h 6 c 2.8,0 5,-2.2 5,-5 0,-2.8 -2.2,-5 -5,-5 z m 0,8 c -1.7,0 -3,-1.4 -3,-3 0,-1.7 1.3,-3 3,-3 1.7,0 3,1.3 3,3 0,1.6 -1.3,3 -3,3 z M 46,14 c 0,-0.5 0.5,-1 1,-1 0.5,0 1,0.5 1,1 v 57 c 0,0.5 -0.5,1 -1,1 -0.5,0 -1,-0.5 -1,-1 z m 4,7 20.9,36.3 H 50 Z m -6,46 v 3 h -5 c 0,-0.5 0.1,-0.9 0.3,-1.3 0.3,-0.6 0.8,-1.1 1.4,-1.4 C 41.1,67.1 41.5,67 42,67 Z M 20,83 c -1.7,0 -3,-1.4 -3,-3 0,-1.7 1.3,-3 3,-3 h 31 c -0.6,0.8 -1,1.9 -1,3 0,1.1 0.4,2.2 1,3 z m 35,0 c -1.7,0 -3,-1.4 -3,-3 0,-1.7 1.3,-3 3,-3 1.7,0 3,1.3 3,3 0,1.6 -1.3,3 -3,3 z m 4.6,-5 C 58.8,76.2 57.1,75 55,75 H 28 c 0,-0.5 0.1,-0.9 0.3,-1.3 0.3,-0.6 0.8,-1.1 1.4,-1.4 C 30.1,72.1 30.5,72 31,72 h 13.2 c 0.4,1.2 1.5,2 2.8,2 1.3,0 2.4,-0.8 2.8,-2 H 62 c -0.6,0.8 -1,1.9 -1,3 0,1.1 0.4,2.2 1,3 z m 6.4,0 c -1.7,0 -3,-1.4 -3,-3 0,-1.7 1.3,-3 3,-3 1.7,0 3,1.3 3,3 0,1.6 -1.3,3 -3,3 z m 4.6,-5 C 69.8,71.2 68.1,70 66,70 H 50 v -3 h 23 c -0.6,0.8 -1,1.9 -1,3 0,1.1 0.4,2.2 1,3 z"
       class="st13" /></g></g><g
   transform="translate(-100.9859,-7.4134965)"
   id="g1790"
   class="st0"><g
     id="g1788"
     class="st1"><defs
       id="defs1781"><rect
         height="100"
         width="100"
         y="-0.2"
         x="0"
         id="rect2032" /></defs><clipPath
       id="ae"><use
         id="use1783"
         overflow="visible"
         xlink:href="#l"
         x="0"
         y="0"
         width="100%"
         height="100%" /></clipPath><path
       id="path1786"
       clip-path="url(#ae)"
       d="m 11.2,66.8 c -0.8,0.8 -2,0.8 -2.8,0 -0.8,-0.8 -0.8,-2 0,-2.8 6.1,-6.1 13.5,-6.1 21,-4.7 0.3,1.4 0.6,2.9 0.9,4.3 -7.2,-1.6 -13.9,-2 -19.1,3.2 z M 90.4,30 c -0.8,-0.8 -2,-0.8 -2.8,0 -5.2,5.2 -11.9,4.8 -19.1,3.3 0.3,1.4 0.6,2.8 0.9,4.3 7.5,1.4 14.9,1.4 21,-4.7 0.8,-0.8 0.8,-2.1 0,-2.9 z M 38.2,66.8 C 38.1,66.3 38,65.7 37.9,65.2 37.7,64.2 37.4,63.1 37.2,62.1 37.1,61.7 37,61.3 36.9,60.9 36.8,60.4 36.7,59.8 36.5,59.3 36.4,58.8 36.3,58.2 36.2,57.7 34.7,50.5 34.3,43.8 39.5,38.6 44.7,33.4 51.4,33.8 58.6,35.3 58.3,33.9 58,32.5 57.7,31 c -7.5,-1.4 -14.9,-1.4 -21,4.7 -6.1,6.1 -6.1,13.5 -4.7,21 0.1,0.5 0.2,1.1 0.3,1.6 0.1,0.5 0.2,1.1 0.3,1.6 0.2,1 0.5,2.1 0.7,3.1 0.1,0.4 0.2,0.8 0.3,1.2 0.1,0.5 0.2,1.1 0.4,1.6 0.1,0.5 0.2,1.1 0.3,1.6 1.5,7.2 1.9,13.9 -3.3,19.1 -0.8,0.8 -0.8,2 0,2.8 0.8,0.8 2,0.8 2.8,0 6.1,-6.1 6.1,-13.5 4.7,-21 0,-0.4 -0.1,-1 -0.3,-1.5 z M 52.7,47.5 c 0.4,-0.4 0.4,-1 0,-1.4 l -6.8,-6.8 c -0.4,-0.4 -1,-0.4 -1.4,0 -0.4,0.4 -0.4,1 0,1.4 l 6.8,6.8 c 0.4,0.3 1,0.3 1.4,0 z M 68.5,16.6 81.2,29.3 c 0.4,0.4 1,0.4 1.4,0 0.4,-0.4 0.4,-1 0,-1.4 L 69.9,15.2 c -0.4,-0.4 -1,-0.4 -1.4,0 -0.4,0.4 -0.4,1 0,1.4 z M 23.9,65.4 c -0.4,0.4 -0.4,1 0,1.4 l 7.1,7.1 c 0.4,0.4 1,0.4 1.4,0 0.4,-0.4 0.4,-1 0,-1.4 L 25.3,65.4 C 25,65 24.3,65 23.9,65.4 Z M 67.1,22.2 c -0.4,0.4 -0.4,1 0,1.4 l 7.1,7.1 c 0.4,0.4 1,0.4 1.4,0 0.4,-0.4 0.4,-1 0,-1.4 l -7.1,-7.1 c -0.4,-0.4 -1,-0.4 -1.4,0 z M 48.5,51.7 c 0.4,-0.4 0.4,-1 0,-1.4 l -6.8,-6.8 c -0.4,-0.4 -1,-0.4 -1.4,0 -0.4,0.4 -0.4,1 0,1.4 l 6.8,6.8 c 0.3,0.4 1,0.4 1.4,0 z M 31,79.5 18.3,66.8 c -0.4,-0.4 -1,-0.4 -1.4,0 -0.4,0.4 -0.4,1 0,1.4 l 12.7,12.7 c 0.4,0.4 1,0.4 1.4,0 0.4,-0.4 0.4,-1 0,-1.4 z m 7.8,-29 c -0.4,0.4 -0.4,1 0,1.4 l 7.1,7.1 c 0.4,0.4 1,0.4 1.4,0 0.4,-0.4 0.4,-1 0,-1.4 l -7.1,-7.1 c -0.4,-0.4 -1,-0.4 -1.4,0 z m 31.7,12.6 -1.2,-1 -1.2,-1 c 1.2,-3.1 0.6,-6.8 -2,-9.3 -0.2,-0.2 -0.4,-0.4 -0.6,-0.6 -0.2,-0.1 -0.4,-0.3 -0.6,-0.4 0,0 -0.1,-0.1 -0.1,-0.1 -0.5,-0.3 -0.9,-0.6 -1.4,-0.8 0,0 0,0 0,0 v 0 c -1.1,-0.5 -2.2,-0.7 -3.4,-0.7 -1,0 -2,0.2 -3,0.5 l 3.5,3.5 c 0.6,0.6 0.9,1.3 1,2.1 0,0.3 0,0.5 0,0.8 0,0 0,0.1 0,0.1 0,0.2 -0.1,0.4 -0.1,0.7 0,0 0,0.1 0,0.1 -0.1,0.2 -0.2,0.4 -0.3,0.6 0,0.1 -0.1,0.1 -0.1,0.2 -0.1,0.2 -0.3,0.4 -0.5,0.6 -0.7,0.7 -1.6,1.1 -2.5,1.1 0,0 0,0 0,0 v 0 c -0.9,0 -1.8,-0.4 -2.5,-1.1 L 52,54.9 c -1,2.7 -0.6,5.8 1.2,8.2 0.2,0.3 0.5,0.6 0.8,0.9 0.3,0.3 0.5,0.5 0.8,0.7 0,0 0,0 0.1,0.1 1.6,1.2 3.4,1.8 5.3,1.8 1.1,0 2.1,-0.2 3.1,-0.6 l 1,1.2 1,1.2 9.9,11.4 c 1.6,1.6 4.3,1.4 6.2,-0.5 1.8,-1.8 2.1,-4.6 0.5,-6.2 z M 49.3,62.6 c -2.9,0.1 -5.9,-0.3 -9.1,-1 0.3,1.4 0.6,2.8 0.9,4.3 3.7,0.7 7.3,1 10.8,0.5 0,0 -0.1,-0.1 -0.1,-0.1 -1.1,-1.2 -1.9,-2.4 -2.5,-3.7 z M 60.6,30 c 0.1,0.5 0.2,1.1 0.3,1.6 0.2,1 0.5,2.1 0.7,3.1 0.1,0.4 0.2,0.8 0.3,1.2 0.1,0.5 0.2,1.1 0.4,1.6 0.1,0.5 0.2,1.1 0.3,1.6 0.5,2.6 0.9,5.2 1,7.7 1.4,0.5 2.8,1.2 4,2.2 0.2,-2.9 -0.1,-5.9 -0.7,-8.9 C 66.8,39.6 66.7,39 66.6,38.5 66.5,38 66.4,37.4 66.3,36.9 66.1,35.9 65.8,34.8 65.6,33.8 65.5,33.4 65.4,33 65.3,32.6 65.1,32 65,31.5 64.8,31 64.7,30.5 64.6,29.9 64.5,29.4 63,22.2 62.6,15.5 67.8,10.3 c 0.8,-0.8 0.8,-2 0,-2.8 -0.8,-0.8 -2,-0.8 -2.8,0 -6.1,6.1 -6.1,13.5 -4.7,21 0,0.4 0.1,1 0.3,1.5 z M 60,46.3 c 0.4,-0.4 0.4,-1 0,-1.4 l -7.1,-7.1 c -0.4,-0.4 -1,-0.4 -1.4,0 -0.4,0.4 -0.4,1 0,1.4 l 7.1,7.1 c 0.4,0.4 1,0.4 1.4,0 z"
       class="st15" /></g></g><g
   transform="translate(-100.9859,-7.4134965)"
   id="g1804"
   class="st0"><g
     id="g1802"
     class="st1"><defs
       id="defs1793"><rect
         height="100"
         width="100"
         id="rect2040"
         x="0"
         y="0" /></defs><clipPath
       id="a"><use
         id="use1795"
         overflow="visible"
         xlink:href="#k"
         x="0"
         y="0"
         width="100%"
         height="100%" /></clipPath><path
       id="path1798"
       clip-path="url(#a)"
       d="m 54,70 -0.2,0.1 c 0,0 0,-0.1 -0.1,-0.1 z"
       class="st16" /><path
       id="path1800"
       clip-path="url(#a)"
       d="m 69,43.5 c -8.8,0 -16.1,5.9 -18.3,14 -0.1,0.3 -0.2,0.7 -0.2,1 -0.1,0.3 -0.1,0.7 -0.2,1 -0.2,1 -0.2,2 -0.2,3 0,2.3 0.4,4.5 1.1,6.5 0.1,0.3 0.3,0.7 0.4,1 0.1,0.3 0.3,0.7 0.5,1 0.8,1.7 1.9,3.2 3.1,4.5 0.3,0.3 0.7,0.7 1,1 0.4,0.4 0.8,0.7 1.2,1 3.2,2.5 7.3,4 11.7,4 2.1,0 4.1,-0.3 6,-1 0.3,-0.1 0.7,-0.2 1,-0.4 0.3,-0.1 0.7,-0.3 1,-0.4 6.5,-3 11,-9.6 11,-17.2 C 88,52 79.5,43.5 69,43.5 Z M 53.8,70.1 c 0,0 0,-0.1 -0.1,-0.1 -0.2,-0.3 -0.3,-0.7 -0.5,-1 -0.8,-2 -1.3,-4.2 -1.3,-6.5 0,-1 0.1,-2 0.3,-3 0,-0.3 0.1,-0.7 0.2,-1 0.1,-0.3 0.2,-0.7 0.3,-1 0.3,-0.9 0.6,-1.8 1,-2.6 L 67,62.5 54,70 Z M 68,79.5 c -2.5,-0.1 -4.9,-0.8 -7,-2 -0.6,-0.3 -1.1,-0.6 -1.7,-1 -0.5,-0.3 -0.9,-0.6 -1.3,-1 -1.3,-1 -2.4,-2.3 -3.3,-3.7 L 68,64.2 Z M 68,60.8 54.8,53.2 c 2.9,-4.3 7.7,-7.3 13.2,-7.6 z m 2,-15.3 c 5.5,0.3 10.3,3.3 13.2,7.6 L 70,60.8 Z m 7,32 c -0.3,0.2 -0.7,0.3 -1,0.5 -0.3,0.2 -0.7,0.3 -1,0.4 -1.6,0.6 -3.2,1 -5,1.1 V 64.2 l 13.2,7.6 c -1.6,2.4 -3.7,4.3 -6.2,5.7 z m -6,-15 13.2,-7.6 c 1.2,2.3 1.8,4.9 1.8,7.6 0,2.7 -0.7,5.3 -1.8,7.6 z M 38.9,25 c 0.6,0 1,0.5 1,1.1 l -0.8,12 c 0,0.5 -0.5,0.9 -1,0.9 -0.6,0 -1,-0.5 -1,-1.1 l 0.8,-12 C 38,25.4 38.4,25 38.9,25 Z m -8.8,0.9 0.8,12 c 0,0.6 -0.4,1.1 -1,1.1 -0.5,0 -1,-0.4 -1,-0.9 l -0.8,-12 c 0,-0.6 0.4,-1.1 1,-1.1 0.5,0 0.9,0.4 1,0.9 z M 75,82.6 c -1.9,0.6 -3.9,0.9 -6,0.9 -5.7,0 -10.9,-2.3 -14.7,-6 -0.3,-0.3 -0.7,-0.7 -1,-1 -0.3,-0.3 -0.6,-0.7 -0.8,-1 H 22.8 c -0.1,0 -0.2,0 -0.4,0 -2.3,-0.2 -4.1,-2.1 -4.1,-4.4 V 64 c 0,-2.5 2,-4.5 4.5,-4.5 h 5.8 c 0.5,2.3 2.5,4 4.9,4 H 35 c 2.4,0 4.4,-1.7 4.9,-4 h 8.3 c 0,-0.3 0.1,-0.7 0.2,-1 0.1,-0.3 0.1,-0.7 0.2,-1 H 40 v -14 H 28.5 v 14 h -5.7 c -3.6,0 -6.5,2.9 -6.5,6.5 v 7 c 0,3.4 2.7,6.2 6.1,6.4 V 89 H 77 v -7.1 c -0.3,0.1 -0.7,0.3 -1,0.4 -0.3,0.1 -0.7,0.2 -1,0.3 z M 30.5,45.5 H 38 v 13 c 0,0.3 -0.1,0.7 -0.2,1 -0.4,1.2 -1.5,2 -2.8,2 h -1.5 c -1.3,0 -2.4,-0.8 -2.8,-2 -0.1,-0.3 -0.2,-0.7 -0.2,-1 z m -10,-11.6 c -3.7,-0.4 -6.7,-3.3 -7.3,-6.9 -0.7,-4 1.4,-7.8 4.9,-9.3 0.4,-4.3 4,-7.7 8.5,-7.7 0.3,0 0.6,0 1,0 1.4,-1.9 3.6,-3 6,-3 2.5,0 4.8,1.2 6.1,3.2 0.6,-0.1 1.2,-0.2 1.9,-0.2 4.6,0 8.4,3.7 8.5,8.3 2.9,1.8 4.5,5.2 3.9,8.8 -0.6,3.4 -3.3,6.1 -6.6,6.8 -1.2,0.2 -2.3,0.2 -3.4,0 -0.5,-0.1 -0.8,-0.5 -0.8,-1 0,-0.6 0.6,-1.1 1.2,-1 1.1,0.2 2.3,0.2 3.6,-0.3 2.1,-0.8 3.8,-2.8 4.1,-5 0.5,-3.1 -1.3,-6 -4,-7 0.2,-1 0.1,-1.9 -0.4,-3.1 C 47,14.6 45.5,13.1 43.5,12.5 41.8,12 40.1,12.2 38.8,12.9 37.9,10.5 35.9,9 33.5,9 c -2.3,0 -4.2,1.4 -5,3.3 -1.8,-0.6 -4,-0.4 -6,1.2 -1.5,1.2 -2.4,3.1 -2.4,5 0,0.2 0,0.5 0,0.7 -3,0.7 -5.2,3.4 -5,6.6 0.1,3.1 2.5,5.7 5.5,6.1 1.1,0.2 2.1,0 3.1,-0.3 0.6,-0.2 1.3,0.2 1.3,0.9 v 0 c 0,0.4 -0.2,0.8 -0.6,0.9 -1.3,0.5 -2.6,0.7 -3.9,0.5 z M 34,20 c 0.5,0 1,0.5 1,1 v 17 c 0,0.5 -0.5,1 -1,1 -0.5,0 -1,-0.5 -1,-1 V 21 c 0,-0.5 0.5,-1 1,-1 z"
       class="st17" /></g></g><g
   transform="translate(-100.9859,-7.4134965)"
   id="g1816"
   class="st0"><g
     id="g1814"
     class="st1"><defs
       id="defs1807"><rect
         height="100"
         width="100"
         id="rect2049"
         x="0"
         y="0" /></defs><clipPath
       id="ad"><use
         id="use1809"
         overflow="visible"
         xlink:href="#j"
         x="0"
         y="0"
         width="100%"
         height="100%" /></clipPath><path
       id="path1812"
       clip-path="url(#ad)"
       d="m 36.4,23 c 1.2,0 2.3,-0.4 3.2,-1.3 1.8,-1.8 1.8,-4.6 0,-6.4 -0.9,-0.9 -2,-1.3 -3.2,-1.3 -1.2,0 -2.3,0.4 -3.2,1.3 -1.8,1.8 -1.8,4.6 0,6.4 0.9,0.9 2.1,1.3 3.2,1.3 z m -1.8,-6.3 c 0.5,-0.5 1.1,-0.7 1.8,-0.7 0.7,0 1.3,0.3 1.8,0.7 0.5,0.4 0.7,1.1 0.7,1.8 0,0.7 -0.3,1.3 -0.7,1.8 -0.4,0.5 -1.1,0.7 -1.8,0.7 -0.7,0 -1.3,-0.3 -1.8,-0.7 -0.9,-1 -0.9,-2.6 0,-3.6 z M 78,69.3 c -1.1,-1.1 -2.6,-1.8 -4,-2 0.3,-2.1 -0.3,-4.4 -2,-6 -0.2,-0.2 -0.4,-0.4 -0.7,-0.6 l 2.6,-2.6 c 2.3,-2.3 2.3,-6.1 0,-8.5 l -0.7,-0.7 0.7,-0.7 c 1.6,-1.6 1.6,-4.1 0,-5.7 -0.5,-0.5 -1.1,-0.8 -1.8,-1 l 1.8,-1.8 c 1.6,-1.6 1.6,-4.1 0,-5.7 -0.5,-0.5 -1.2,-0.9 -1.9,-1 1.3,-1.6 1.2,-3.9 -0.3,-5.3 -1.5,-1.5 -3.8,-1.5 -5.3,-0.3 -0.2,-0.7 -0.5,-1.3 -1,-1.9 -1.6,-1.6 -4.1,-1.6 -5.7,0 l -4.9,4.9 -5.7,-5.7 c -1.2,-1.2 -2.7,-1.8 -4.2,-1.8 -1.5,0 -3.1,0.6 -4.2,1.8 l -2.9,2.9 c -1.2,-1 -2.7,-1.6 -4.2,-1.6 -1.7,0 -3.3,0.6 -4.6,1.9 -2.4,2.4 -2.5,6.3 -0.3,8.8 l -1.4,1.4 c -2.3,2.3 -2.3,6.1 0,8.5 v 0 l -2.1,2.1 c -6.2,6.2 -6.5,16.7 -0.3,22.9 6.3,6.3 16.7,6 22.9,-0.3 l 2.1,-2.1 2.1,2.1 c 0.9,0.9 2,1.4 3.1,1.6 -0.3,2.1 0.3,4.4 2,6 1.4,1.4 3.2,2.1 4.9,2.1 1.8,0 3.6,-0.7 4.9,-2.1 0.2,-0.2 0.4,-0.4 0.6,-0.6 0.2,0.2 0.4,0.4 0.6,0.6 1.4,1.4 3.2,2.1 4.9,2.1 1.8,0 3.6,-0.7 4.9,-2.1 2.8,-2.4 2.8,-6.9 0.1,-9.6 z M 72.2,43.7 c 1,0.7 1.1,2.2 0.3,3 L 71.8,47.4 69,44.6 69.6,44 c 0.7,-0.7 1.8,-0.8 2.6,-0.3 z m 0,-8.4 c 1,0.7 1.1,2.2 0.3,3 l -4.2,4.2 -0.7,0.7 -2.8,-2.8 4.9,-4.9 c 0.6,-0.7 1.7,-0.8 2.5,-0.2 z m -4.8,-6.1 c 0.7,-0.7 1.8,-0.9 2.6,-0.3 1,0.7 1.1,2.2 0.3,3 l -7,7.1 -2.8,-2.8 z m -6.3,-2.1 c 0.7,-0.7 1.8,-0.9 2.6,-0.3 1,0.7 1.1,2.2 0.3,3 l -5,5 -2.8,-2.8 z m -27.5,1 c 1,0 2,0.4 2.8,1 v 0 c 0.1,0.1 0.1,0.1 0.2,0.2 0.1,0 0.1,0.1 0.2,0.1 0.2,0.2 0.3,0.4 0.5,0.6 0.1,0.2 0.3,0.4 0.4,0.6 0.3,0.6 0.5,1.3 0.5,1.9 0,1.2 -0.5,2.3 -1.3,3.2 C 36,36.5 34.9,37 33.7,37 33,37 32.4,36.8 31.8,36.5 31.6,36.4 31.4,36.3 31.2,36.1 31,36 30.8,35.8 30.6,35.6 c 0,0 0,0 0,0 -0.1,-0.1 -0.1,-0.1 -0.2,-0.2 -0.7,-0.8 -1.1,-1.9 -1.1,-3 0,-1.2 0.5,-2.3 1.3,-3.2 0.7,-0.6 1.8,-1.1 3,-1.1 z m 12.7,42 C 40.7,75.7 31.1,75.8 25.7,69.9 20.6,64.3 21.4,55.4 26.8,50 l 3.2,-3.2 2.3,-2.3 c 0.7,-0.7 1.8,-0.9 2.6,-0.3 1,0.7 1.1,2.2 0.3,3 l -4.5,4.5 c -0.4,0.4 -0.4,1 0,1.4 0.4,0.4 1,0.4 1.4,0 L 45.7,39.5 c 0.7,-0.7 1.8,-0.9 2.6,-0.3 1,0.7 1.1,2.2 0.3,3 l -9.9,9.9 c -0.4,0.4 -0.4,1 0,1.4 0.4,0.4 1,0.4 1.4,0 L 52,41.6 c 0.7,-0.7 1.8,-0.9 2.6,-0.3 1,0.7 1.1,2.2 0.3,3 l -12,12 c -0.4,0.4 -0.4,1 0,1.4 0.4,0.4 1,0.4 1.4,0 l 9.8,-9.8 c 0.7,-0.7 1.8,-0.9 2.6,-0.3 1,0.7 1.1,2.2 0.3,3 L 45.9,62.1 c -0.1,0.1 -0.2,0.2 -0.2,0.4 v 0 c 0,0.1 -0.1,0.2 -0.1,0.3 0,0 0,0.1 0,0.1 0,0.1 0,0.2 0,0.2 0,0 0,0.1 0,0.1 0,0.1 0.1,0.2 0.2,0.3 0,0 0,0 0,0 0,0 0,0 0,0 0.1,0.1 0.2,0.1 0.3,0.2 0,0 0.1,0 0.1,0 0.1,0 0.1,0 0.2,0 0,0 0.1,0 0.1,0 0.1,0 0.2,0 0.3,-0.1 0.1,0 0.2,-0.1 0.4,-0.2 l 7,-7 c 0.7,-0.7 1.8,-0.9 2.6,-0.3 1,0.7 1.1,2.2 0.3,3 z m 7.1,0 -2.1,-2.1 7.4,-7.4 c 1.6,-1.6 1.6,-4.1 0,-5.7 -0.5,-0.5 -1.1,-0.8 -1.8,-1 l 1.8,-1.8 c 1.6,-1.6 1.6,-4.1 0,-5.7 -0.5,-0.5 -1.2,-0.9 -1.9,-1 1.3,-1.6 1.2,-3.9 -0.3,-5.3 -1.5,-1.4 -3.8,-1.5 -5.3,-0.3 -0.2,-0.7 -0.5,-1.3 -1,-1.9 -1.6,-1.6 -4.1,-1.6 -5.7,0 l -6.8,6.8 c -0.2,-0.7 -0.5,-1.3 -1,-1.8 -1.6,-1.6 -4.1,-1.6 -5.7,0 l -2.4,2.4 v 0 c -0.8,-0.8 -1.2,-1.8 -1.2,-2.8 0,-1 0.4,-2.1 1.2,-2.8 l 1.5,-1.5 c 1,0.6 2.2,1 3.4,1 1.7,0 3.3,-0.6 4.6,-1.9 2.2,-2.2 2.5,-5.5 0.9,-8 l 3,-3 c 0.8,-0.8 1.8,-1.2 2.8,-1.2 1.1,0 2.1,0.4 2.8,1.2 l 18.4,18.4 1.4,1.4 v 0 l 2.8,2.8 v 0 l 1.4,1.4 v 0 l 0.7,0.7 c 0.8,0.8 1.2,1.8 1.2,2.8 0,1.1 -0.4,2.1 -1.2,2.8 l -3,3 c -0.8,-0.3 -1.6,-0.4 -2.5,-0.4 -1.8,0 -3.6,0.7 -4.9,2.1 -1.7,1.7 -2.3,4 -1.9,6.2 -1.1,0.3 -2.2,0.9 -3.1,1.8 -0.6,0.6 -1,1.2 -1.4,1.9 -0.7,-0.1 -1.5,-0.5 -2.1,-1.1 z m 23.1,7.7 c -0.9,0.9 -2.2,1.5 -3.5,1.5 -1.3,0 -2.6,-0.5 -3.5,-1.5 -0.1,-0.1 -0.3,-0.3 -0.4,-0.5 l -1.6,-2 -1.6,2 c -0.1,0.2 -0.3,0.3 -0.4,0.4 -0.9,0.9 -2.2,1.5 -3.5,1.5 -1.3,0 -2.6,-0.5 -3.5,-1.5 -0.9,-0.9 -1.5,-2.2 -1.5,-3.5 0,-0.6 0.1,-1.2 0.3,-1.8 0,-0.1 0.1,-0.2 0.1,-0.3 0.1,-0.2 0.2,-0.3 0.3,-0.5 0.1,-0.1 0.1,-0.2 0.2,-0.2 0.2,-0.2 0.3,-0.5 0.6,-0.7 0,0 0,0 0,0 0.3,-0.3 0.6,-0.5 0.9,-0.7 0.4,-0.2 0.8,-0.4 1.3,-0.6 L 62,69 62.4,68.9 62.1,67.1 c 0,0 0,0 0,-0.1 -0.3,-1.6 0.2,-3.2 1.4,-4.4 0.9,-0.9 2.2,-1.5 3.5,-1.5 0.3,0 0.5,0 0.8,0.1 v 0 c 0.1,0 0.3,0.1 0.4,0.1 0.1,0 0.3,0.1 0.4,0.1 0.1,0.1 0.3,0.1 0.4,0.2 0.2,0.1 0.3,0.2 0.5,0.3 0.1,0 0.2,0.1 0.2,0.1 0.2,0.2 0.5,0.4 0.7,0.6 1.1,1.1 1.6,2.7 1.4,4.3 l -0.3,2 2,0.3 c 1.1,0.1 2.1,0.6 2.9,1.4 0.9,0.9 1.5,2.2 1.5,3.5 0.1,1.5 -0.4,2.8 -1.4,3.7 z"
       class="st18" /></g></g><g
   transform="translate(-100.9859,-7.4134965)"
   id="g1828"
   class="st0"><g
     id="g1826"
     class="st1"><defs
       id="defs1819"><rect
         height="100"
         width="100"
         id="rect2057"
         x="0"
         y="0" /></defs><clipPath
       id="ac"><use
         id="use1821"
         overflow="visible"
         xlink:href="#i"
         x="0"
         y="0"
         width="100%"
         height="100%" /></clipPath><path
       id="path1824"
       clip-path="url(#ac)"
       d="m 78,53.4 v 0 C 77.9,53.3 77.8,53.2 77.8,53.2 76.5,51.9 75.4,51.6 74.4,51.4 73.5,51.2 72.9,51.1 71.9,50.1 71,49.2 70.7,48.6 70.5,47.8 70.3,46.8 70.1,45.6 68.8,44.3 L 68,43.4 c 1.3,-1.9 1.1,-4.6 -0.6,-6.3 v 0 l 1.4,-1.4 c 0.4,-0.4 0.4,-1 0,-1.4 -0.2,-0.2 -0.5,-0.3 -0.7,-0.3 -0.2,0 -0.5,0.1 -0.7,0.3 l -1.4,1.4 -2.1,-2.1 1.4,-1.4 c 0.4,-0.4 0.4,-1 0,-1.4 -0.2,-0.2 -0.5,-0.3 -0.7,-0.3 -0.2,0 -0.5,0.1 -0.7,0.3 l -1.4,1.4 v 0 C 61.8,31.5 61,31.1 60.2,30.9 V 28 c 0,-0.6 -0.4,-1 -1,-1 -0.6,0 -1,0.4 -1,1 v 2.8 c -0.7,0.1 -1.4,0.4 -2,0.8 L 54.7,30 c -0.2,-0.2 -0.5,-0.3 -0.7,-0.3 -0.2,0 -0.5,0.1 -0.7,0.3 -0.4,0.4 -0.4,1 0,1.4 l 1.5,1.5 c -0.4,0.5 -0.6,1.1 -0.7,1.8 h -2.6 c -0.6,0 -1,0.4 -1,1 0,0.6 0.4,1 1,1 H 54 c 0.2,0.9 0.6,1.8 1.4,2.5 L 54,40.6 c -0.4,0.4 -0.4,1 0,1.4 0.2,0.2 0.5,0.3 0.7,0.3 0.2,0 0.5,-0.1 0.7,-0.3 l 1.4,-1.4 2.1,2.1 -1.4,1.4 c -0.4,0.4 -0.4,1 0,1.4 0.2,0.2 0.5,0.3 0.7,0.3 0.2,0 0.5,-0.1 0.7,-0.3 l 1.4,-1.4 c 0.8,0.8 1.7,1.2 2.7,1.4 v 2.8 c 0,0.6 0.4,1 1,1 0.6,0 1,-0.4 1,-1 v -2.9 c 0.5,-0.1 1.1,-0.3 1.5,-0.7 l 0.8,0.8 c 0.9,0.9 1,1.7 1.2,2.6 0.2,1 0.6,2 1.9,3.3 1.3,1.3 2.4,1.6 3.4,1.8 0.9,0.2 1.5,0.3 2.5,1.3 0.1,0.1 0.2,0.2 0.2,0.2 v 0 l 0.7,0.7 c 0.4,0.4 1,0.4 1.4,0 0.4,-0.4 0.4,-1 0,-1.4 z M 63.9,43.6 c -0.8,0 -1.6,-0.3 -2.1,-0.9 L 56.9,37.8 C 56.3,37.2 56,36.5 56,35.7 c 0,-0.8 0.3,-1.6 0.9,-2.1 0.6,-0.5 1.3,-0.9 2.1,-0.9 0.8,0 1.6,0.3 2.1,0.9 l 4.9,4.9 c 0.6,0.6 0.9,1.3 0.9,2.1 0,0.8 -0.3,1.6 -0.9,2.1 -0.6,0.6 -1.3,0.9 -2.1,0.9 z m 7.7,18.5 H 69 C 68.8,61.2 68.4,60.3 67.6,59.6 L 69,58.2 c 0.4,-0.4 0.4,-1 0,-1.4 -0.2,-0.2 -0.5,-0.3 -0.7,-0.3 -0.2,0 -0.5,0.1 -0.7,0.3 l -1.4,1.4 -2.1,-2.2 1.4,-1.4 c 0.4,-0.4 0.4,-1 0,-1.4 -0.2,-0.2 -0.5,-0.3 -0.7,-0.3 -0.2,0 -0.5,0.1 -0.7,0.3 l -1.4,1.4 C 61.9,53.8 61,53.4 60,53.2 v -2.8 c 0,-0.6 -0.4,-1 -1,-1 -0.6,0 -1,0.4 -1,1 v 2.9 c -0.5,0.1 -1.1,0.3 -1.6,0.7 l -0.8,-0.8 c -0.9,-0.9 -1,-1.7 -1.2,-2.6 -0.2,-1 -0.6,-2 -1.9,-3.3 C 51.2,46 50.1,45.7 49.1,45.5 48.2,45.3 47.6,45.2 46.6,44.2 46.5,44.1 46.4,44 46.4,44 v 0 l -0.7,-0.7 c -0.4,-0.4 -1,-0.4 -1.4,0 -0.4,0.4 -0.4,1 0,1.4 l 0.7,0.7 v 0 c 0.1,0.1 0.1,0.2 0.2,0.2 1.3,1.3 2.4,1.6 3.4,1.8 0.9,0.2 1.5,0.3 2.5,1.3 0.9,0.9 1.2,1.5 1.4,2.3 0.2,1 0.4,2.2 1.7,3.5 l 0.8,0.8 c -0.4,0.5 -0.6,1.1 -0.7,1.8 h -3 c -0.6,0 -1,0.4 -1,1 0,0.6 0.4,1 1,1 h 3 c 0.2,0.9 0.6,1.8 1.4,2.5 v 0 L 54.3,63 c -0.4,0.4 -0.4,1 0,1.4 0.2,0.2 0.5,0.3 0.7,0.3 0.2,0 0.5,-0.1 0.7,-0.3 l 1.4,-1.4 2.1,2.1 -1.4,1.4 c -0.4,0.4 -0.4,1 0,1.4 0.2,0.2 0.5,0.3 0.7,0.3 0.2,0 0.5,-0.1 0.7,-0.3 l 1.4,-1.4 v 0 c 0.7,0.7 1.5,1.1 2.3,1.3 v 2.9 c 0,0.6 0.4,1 1,1 0.6,0 1,-0.4 1,-1 V 68 c 0.7,-0.1 1.4,-0.4 2,-0.8 l 1.5,1.5 c 0.2,0.2 0.5,0.3 0.7,0.3 0.2,0 0.5,-0.1 0.7,-0.3 0.4,-0.4 0.4,-1 0,-1.4 L 68.3,65.8 C 68.7,65.3 68.9,64.7 69,64 h 2.6 c 0.6,0 1,-0.4 1,-1 0,-0.5 -0.5,-0.9 -1,-0.9 z M 57,60.3 c -0.6,-0.6 -0.9,-1.3 -0.9,-2.1 0,-0.8 0.3,-1.6 0.9,-2.1 0.6,-0.5 1.3,-0.9 2.1,-0.9 0.8,0 1.6,0.3 2.1,0.9 l 4.9,4.9 c 0.6,0.6 0.9,1.3 0.9,2.1 0,0.8 -0.3,1.6 -0.9,2.1 -0.6,0.6 -1.3,0.9 -2.1,0.9 -0.8,0 -1.6,-0.3 -2.1,-0.9 z M 84.6,27.4 C 78.4,21.1 70.2,18 62,18 c -8.2,0 -16.4,3.1 -22.6,9.4 -12.5,12.5 -12.5,32.8 0,45.3 6.2,6.2 14.4,9.3 22.6,9.3 8.2,0 16.4,-3.1 22.6,-9.4 12.5,-12.5 12.5,-32.7 0,-45.2 z m -4.2,41 C 75.5,73.3 68.9,76 62,76 56,76 50.4,74 45.8,70.3 L 51.1,65 47,60.9 41.7,66.2 C 33.6,56 34.2,41 43.6,31.6 48.5,26.7 55.1,24 62,24 c 6,0 11.6,2 16.2,5.7 L 72.9,35 77,39.1 82.3,33.8 C 90.5,44 89.8,58.9 80.4,68.4 Z M 26,48.2 H 10 V 28.1 c 0,-8.6 7,-15.6 15.5,-15.6 4.1,0 8,1.6 11,4.6 1.4,1.4 2.4,3 3.2,4.7 0.8,-0.6 1.6,-1.2 2.5,-1.8 C 41.3,18.2 40.1,16.5 38.7,15 35.2,11.5 30.6,9.5 25.6,9.5 15.3,9.5 7,17.9 7,28.1 V 70.4 C 7,80.6 15.3,89 25.5,89 32.4,89 38.3,85.2 41.5,79.6 39.7,78.4 38.1,77 36.5,75.4 29.1,68 25.6,58 26,48.2 Z m -6.1,31 c -0.5,0.7 -1.4,0.9 -2.1,0.4 C 14.9,77.4 13,73.9 13,70 V 56.5 c 0,-0.8 0.7,-1.5 1.5,-1.5 0.8,0 1.5,0.7 1.5,1.5 V 70 c 0,2.9 1.4,5.6 3.6,7.2 0.6,0.5 0.7,1.4 0.3,2 z"
       class="st19" /></g></g><g
   transform="translate(-100.9859,-7.4134965)"
   id="g1840"
   class="st0"><g
     id="g1838"
     class="st1"><defs
       id="defs1831"><rect
         height="100"
         width="100"
         id="rect2065"
         x="0"
         y="0" /></defs><clipPath
       id="ab"><use
         id="use1833"
         overflow="visible"
         xlink:href="#h"
         x="0"
         y="0"
         width="100%"
         height="100%" /></clipPath><path
       id="path1836"
       clip-path="url(#ab)"
       d="M 75.9,55 C 74.2,56 73,57.7 73,59.7 V 60 h -4 v -0.4 c 0,-2 -1.2,-3.7 -2.9,-4.7 C 65.4,54.5 65,54 65,53.5 65,52.1 67.7,51 71,51 c 3.3,0 6,1.1 6,2.5 0,0.5 -0.4,1 -1.1,1.5 z m 2.1,9 c 0,1.1 -0.9,2 -2,2 H 68 C 64.6,66 62.8,64.7 61.3,63.6 60,62.7 59.1,62 57,62 H 44.7 l 0.3,4 h 11 c 1.1,0 2,0.9 2,2 v 5 c 0,1.1 -0.9,2 -2,2 H 26 c -1.1,0 -2,-0.9 -2,-2 v -5 c 0,-1.1 0.9,-2 2,-2 h 4 l 0.5,-4 H 26 c -1.1,0 -2,-0.9 -2,-2 0,-1.1 0.9,-2 2,-2 h 4.9 l 0.3,-2.3 c 0.1,-1 1,-1.7 2,-1.7 h 9.1 c 1,0 1.9,0.8 2,1.8 L 44.5,58 H 57 c 3.4,0 5.2,1.3 6.7,2.4 1.3,0.9 2.2,1.6 4.3,1.6 h 8 c 1.1,0 2,0.9 2,2 z M 42.2,56 h -9 L 33,58 32,66.2 31.8,68 H 26 v 5 H 56 V 68 H 43.2 Z m -4.7,2 C 36.1,58 35,59.1 35,60.5 35,61.9 36.1,63 37.5,63 38.9,63 40,61.9 40,60.5 40,59.1 38.9,58 37.5,58 Z M 71,27 v 13 c 0,2.2 -1.8,4 -4,4 h -8 l -7.7,6.8 c -0.4,0.4 -0.9,0.5 -1.3,0.5 -1,0 -2,-0.8 -2,-2 V 44 H 32 c -2.2,0 -4,-1.8 -4,-4 V 27 c 0,-2.2 1.8,-4 4,-4 h 35 c 2.2,0 4,1.8 4,4 z m -2,0 c 0,-1.1 -0.9,-2 -2,-2 H 32 c -1.1,0 -2,0.9 -2,2 v 13 c 0,1.1 0.9,2 2,2 h 16 2 v 2 5.3 l 7.7,-6.8 0.6,-0.5 h 0.7 8 c 1.1,0 2,-0.9 2,-2 z m -16,3.5 v 0 C 53,29.7 52.3,29 51.5,29 h -11 C 39.7,29 39,29.7 39,30.5 v 0 c 0,0.8 0.7,1.5 1.5,1.5 h 11 c 0.8,0 1.5,-0.7 1.5,-1.5 z m 13,6 v 0 C 66,35.7 65.3,35 64.5,35 h -9 C 54.7,35 54,35.7 54,36.5 v 0 c 0,0.8 0.7,1.5 1.5,1.5 h 9 c 0.8,0 1.5,-0.7 1.5,-1.5 z m -21,0 v 0 C 45,35.7 44.3,35 43.5,35 h -9 C 33.7,35 33,35.7 33,36.5 v 0 c 0,0.8 0.7,1.5 1.5,1.5 h 9 C 44.3,38 45,37.3 45,36.5 Z M 58.5,29 C 57.7,29 57,29.7 57,30.5 57,31.3 57.7,32 58.5,32 59.3,32 60,31.3 60,30.5 60,29.7 59.3,29 58.5,29 Z m -24,0 C 33.7,29 33,29.7 33,30.5 33,31.3 33.7,32 34.5,32 35.3,32 36,31.3 36,30.5 36,29.7 35.3,29 34.5,29 Z m 15,6 C 48.7,35 48,35.7 48,36.5 48,37.3 48.7,38 49.5,38 50.3,38 51,37.3 51,36.5 51,35.7 50.3,35 49.5,35 Z m 15,-6 C 63.7,29 63,29.7 63,30.5 63,31.3 63.7,32 64.5,32 65.3,32 66,31.3 66,30.5 66,29.7 65.3,29 64.5,29 Z"
       class="st20" /></g></g><g
   transform="translate(-100.9859,-7.4134965)"
   id="g1858"
   class="st0"><g
     id="g1856"
     class="st1"><defs
       id="defs1843"><rect
         height="100"
         width="100"
         id="rect2073"
         x="0"
         y="0" /></defs><clipPath
       id="aa"><use
         id="use1845"
         overflow="visible"
         xlink:href="#g"
         x="0"
         y="0"
         width="100%"
         height="100%" /></clipPath><g
       id="g1854"
       clip-path="url(#aa)"
       class="st21"><path
         id="path1848"
         d="m 52.4,32.3 -3.1,4.3 c -1.8,-0.5 -3.5,-0.7 -5.3,-0.7 -4.9,0 -9.8,1.8 -13.7,5.3 -0.4,0.4 -0.4,1 0,1.4 l 8.6,8.6 -2.9,3.8 9,9 3.9,-2.8 8.7,8.7 c 0.4,0.4 1.1,0.4 1.4,0 4.9,-5.4 6.3,-12.7 4.5,-19.3 l 4.2,-3 C 76.7,40 77.3,33.8 78,22 v 0 C 66.2,22.7 60,23.3 52.4,32.3 Z m -20,9.6 c 3.3,-2.6 7.3,-4.1 11.5,-4.1 1.4,0 2.8,0.2 4.1,0.5 L 40,49.5 Z M 58.3,67.8 50.5,60 61.8,51.9 c 1.3,5.4 0.2,11.3 -3.5,15.9 z M 66.5,46.1 45.2,61.4 38.6,54.8 53.9,33.5 c 6.6,-7.7 11.5,-8.7 21.9,-9.4 -0.6,10.4 -1.6,15.4 -9.3,22 z" /><path
         id="path1850"
         d="m 65.6,40 c 1.4,0 2.8,-0.5 3.9,-1.6 2.1,-2.1 2.1,-5.6 0,-7.7 -1.1,-1.1 -2.5,-1.6 -3.9,-1.6 -1.4,0 -2.8,0.5 -3.9,1.6 -2.1,2.1 -2.1,5.6 0,7.7 1.1,1.1 2.5,1.6 3.9,1.6 z m -2.4,-7.9 c 0.7,-0.7 1.5,-1 2.4,-1 0.9,0 1.8,0.4 2.4,1 1.3,1.3 1.3,3.5 0,4.9 -0.7,0.7 -1.5,1 -2.4,1 -0.9,0 -1.8,-0.4 -2.4,-1 -1.4,-1.4 -1.4,-3.5 0,-4.9 z" /><path
         id="path1852"
         d="M 39.5,64 25.1,74.9 36,60.4 C 36.4,60 36.3,59.3 35.9,59 35.5,58.6 34.8,58.7 34.5,59.1 L 17.2,81.4 c -0.3,0.4 -0.3,1 0.1,1.3 0.2,0.2 0.5,0.3 0.7,0.3 0.2,0 0.4,-0.1 0.6,-0.2 L 40.7,65.6 c 0.4,-0.3 0.5,-1 0.1,-1.4 -0.2,-0.5 -0.9,-0.6 -1.3,-0.2 z" /></g></g></g><g
   transform="translate(-100.9859,-7.4134965)"
   id="g1870"
   class="st0"><g
     id="g1868"
     class="st1"><defs
       id="defs1861"><rect
         height="100"
         width="100"
         id="rect2084"
         x="0"
         y="0" /></defs><clipPath
       id="z"><use
         id="use1863"
         overflow="visible"
         xlink:href="#f"
         x="0"
         y="0"
         width="100%"
         height="100%" /></clipPath><path
       id="path1866"
       clip-path="url(#z)"
       d="m 71.9,24 c 0.1,0 0.1,0 0,0 L 72,55.9 c 0,0 0,0.1 -0.1,0.1 H 28.1 c 0,0 -0.1,0 -0.1,-0.1 V 24.1 c 0,0 0,-0.1 0.1,-0.1 h 43.8 m 0,-2 H 28.1 C 26.9,22 26,22.9 26,24.1 v 31.8 c 0,1.2 0.9,2.1 2.1,2.1 H 71.9 C 73.1,58 74,57.1 74,55.9 V 24.1 C 74,22.9 73.1,22 71.9,22 Z M 72,64 V 74 H 28 V 64 h 44 m 0.1,-2 H 27.9 c -1,0 -1.9,0.8 -1.9,1.9 v 10.3 c 0,1 0.8,1.9 1.9,1.9 h 44.3 c 1,0 1.9,-0.8 1.9,-1.9 V 63.9 C 74,62.8 73.2,62 72.1,62 Z M 70,26 H 30 V 54 H 70 Z M 45,68 H 33 c -0.6,0 -1,0.4 -1,1 0,0.6 0.4,1 1,1 h 12 c 0.6,0 1,-0.4 1,-1 0,-0.6 -0.4,-1 -1,-1 z m 22,-1 c -1.1,0 -2,0.9 -2,2 0,1.1 0.9,2 2,2 1.1,0 2,-0.9 2,-2 0,-1.1 -0.9,-2 -2,-2 z"
       class="st22" /></g></g><g
   transform="translate(-100.9859,-7.4134965)"
   id="g1882"
   class="st0"><g
     id="g1880"
     class="st1"><defs
       id="defs1873"><rect
         height="100"
         width="100"
         id="rect2092"
         x="0"
         y="0" /></defs><clipPath
       id="y"><use
         id="use1875"
         overflow="visible"
         xlink:href="#e"
         x="0"
         y="0"
         width="100%"
         height="100%" /></clipPath><path
       id="path1878"
       clip-path="url(#y)"
       d="M 41.7,38.9 36.2,31.4 C 35.9,31 36,30.3 36.4,30 v 0 c 0.4,-0.3 1.1,-0.2 1.4,0.2 l 5.5,7.5 c 0.3,0.5 0.2,1.1 -0.3,1.4 0,0 0,0 0,0 -0.4,0.3 -1,0.2 -1.3,-0.2 z M 63.6,30 v 0 c -0.5,-0.3 -1.1,-0.2 -1.4,0.2 l -5.5,7.5 c -0.3,0.5 -0.2,1.1 0.3,1.4 0,0 0,0 0,0 0.4,0.3 1,0.2 1.4,-0.2 l 5.5,-7.5 C 64.1,30.9 64,30.3 63.6,30 Z M 71.3,54.5 63.4,52 c -0.5,-0.2 -1.1,0.1 -1.3,0.7 0,0 0,0 0,0 -0.1,0.5 0.2,1 0.7,1.2 l 7.9,2.6 c 0.5,0.2 1.1,-0.1 1.2,-0.6 v 0 c 0.2,-0.6 -0.1,-1.2 -0.6,-1.4 z M 50,71 c 0.5,0 1,-0.4 1,-1 v -7.7 c 0,-0.6 -0.4,-1 -1,-1 -0.6,0 -1,0.4 -1,1 V 70 c 0,0.6 0.4,1 1,1 z M 37.9,52.7 C 37.8,52.1 37.2,51.8 36.6,52 l -7.9,2.6 c -0.5,0.2 -0.8,0.7 -0.6,1.2 v 0 c 0.2,0.5 0.7,0.8 1.2,0.6 l 7.9,-2.6 c 0.5,-0.1 0.8,-0.6 0.7,-1.1 0,0 0,0 0,0 z M 26,19.6 V 14 c 0,-1.1 0.9,-2 2,-2 h 10 c 1.1,0 2,0.9 2,2 v 5.6 c 0,1.1 -0.9,2 -2,2 H 28 c -1.1,0.1 -2,-0.8 -2,-2 z m 2,0 c 0,0.1 0,0.1 0,0 h 10 c 0,0 0,0 0,0 V 14 c 0,0 0,0 0,0 H 28 c 0,0 0,0 0,0 z m 13,5.1 c 0,-0.6 -0.4,-1 -1,-1 H 26 c -0.6,0 -1,0.4 -1,1 0,0.6 0.4,1 1,1 h 14 c 0.6,0 1,-0.5 1,-1 z m 4,50.6 h 10 c 1.1,0 2,0.9 2,2 V 83 c 0,1.1 -0.9,2 -2,2 H 45 c -1.1,0 -2,-0.9 -2,-2 v -5.6 c 0,-1.2 0.9,-2.1 2,-2.1 z m 10,2 H 45 c 0,0 0,0 0,0 V 83 c 0,0 0,0 0,0 h 10 c 0,0 0,0 0,0 v -5.7 c 0,0 0,0 0,0 z M 57,87 H 43 c -0.6,0 -1,0.4 -1,1 0,0.6 0.4,1 1,1 h 14 c 0.6,0 1,-0.4 1,-1 0,-0.6 -0.4,-1 -1,-1 z M 76,59.6 V 54 c 0,-1.1 0.9,-2 2,-2 h 10 c 1.1,0 2,0.9 2,2 v 5.6 c 0,1.1 -0.9,2 -2,2 H 78 c -1.1,0.1 -2,-0.8 -2,-2 z m 2,0 c 0,0.1 0,0.1 0,0 h 10 c 0,0 0,0 0,0 V 54 c 0,0 0,0 0,0 H 78 c 0,0 0,0 0,0 z m 12,4.1 H 76 c -0.6,0 -1,0.4 -1,1 0,0.6 0.4,1 1,1 h 14 c 0.6,0 1,-0.4 1,-1 0,-0.6 -0.4,-1 -1,-1 z M 10,61 v -5.6 c 0,-1.1 0.9,-2 2,-2 h 10 c 1.1,0 2,0.9 2,2 V 61 c 0,1.1 -0.9,2 -2,2 H 12 c -1.1,0 -2,-0.9 -2,-2 z m 2,0 c 0,0 0,0 0,0 h 10 c 0,0 0,0 0,0 v -5.6 c 0,0 0,0 0,0 H 12 c 0,0 0,0 0,0 z m 12,4 H 10 c -0.6,0 -1,0.4 -1,1 0,0.6 0.4,1 1,1 h 14 c 0.6,0 1,-0.4 1,-1 0,-0.6 -0.4,-1 -1,-1 z M 60,19.6 V 14 c 0,-1.1 0.9,-2 2,-2 h 10 c 1.1,0 2,0.9 2,2 v 5.6 c 0,1.1 -0.9,2 -2,2 H 62 c -1.1,0.1 -2,-0.8 -2,-2 z m 2,0 c 0,0.1 0,0.1 0,0 h 10 c 0,0 0,0 0,0 V 14 c 0,0 0,0 0,0 H 62 c 0,0 0,0 0,0 z m 12,4.1 H 60 c -0.6,0 -1,0.4 -1,1 0,0.6 0.4,1 1,1 h 14 c 0.6,0 1,-0.4 1,-1 0,-0.6 -0.4,-1 -1,-1 z M 43,44.6 c 0,-1.1 0.9,-2 2,-2 h 10 c 1.1,0 2,0.9 2,2 v 5.6 c 0,1.1 -0.9,2 -2,2 H 45 c -1.1,0 -2,-0.9 -2,-2 z m 2,5.6 c 0,0 0,0 0,0 h 10 c 0,0 0,0 0,0 v -5.6 c 0,0 0,0 0,0 H 45 c 0,0 0,0 0,0 z m 12,4 H 43 c -0.6,0 -1,0.4 -1,1 0,0.6 0.4,1 1,1 h 14 c 0.6,0 1,-0.4 1,-1 0,-0.6 -0.4,-1 -1,-1 z"
       class="st23" /></g></g><g
   transform="translate(-100.9859,-7.4134965)"
   id="g1898"
   class="st0"><g
     id="g1896"
     class="st1"><defs
       id="defs1885"><rect
         height="100"
         width="100"
         id="rect2100"
         x="0"
         y="0" /></defs><clipPath
       id="x"><use
         id="use1887"
         overflow="visible"
         xlink:href="#d"
         x="0"
         y="0"
         width="100%"
         height="100%" /></clipPath><g
       id="g1894"
       clip-path="url(#x)"
       class="st24"><path
         id="path1890"
         d="M 46.2,63.5 36.1,74.5 44.6,50 h -11 L 46.4,18 h 14 l -10,22.8 -1.2,2.8 h 3.1 12.2 l -5.1,5.5 c 0.6,0.3 1.1,0.7 1.6,1.2 l 8,-8.7 H 52.2 L 63.4,16 H 45 L 30.6,52 H 41.8 L 31,83 47.5,65 c 0,-0.1 -1,-1.1 -1.3,-1.5 z" /><path
         id="path1892"
         d="m 71.8,69.8 -11,-9.6 c 1,-2.5 0.4,-5.4 -1.6,-7.4 -1.4,-1.4 -3.1,-2 -4.9,-2 -0.8,0 -1.7,0.2 -2.4,0.4 l 2.8,2.8 c 0,0 0.1,0.1 0.1,0.1 v 0 c 0.1,0.2 0.3,0.3 0.4,0.5 0,0 0,0 0,0 0.1,0.2 0.2,0.3 0.2,0.5 0,0 0,0 0,0 0.1,0.2 0.1,0.4 0.1,0.6 0,0 0,0 0,0 0,0.2 0,0.4 0,0.6 -0.1,0.7 -0.3,1.3 -0.8,1.8 -0.4,0.4 -1,0.7 -1.6,0.8 v 0 c -0.2,0 -0.3,0 -0.5,0 -0.2,0 -0.3,0 -0.5,0 -0.1,0 -0.2,0 -0.3,-0.1 -0.1,0 -0.1,0 -0.2,-0.1 -0.1,0 -0.2,-0.1 -0.3,-0.1 0,0 -0.1,0 -0.1,0 -0.1,-0.1 -0.2,-0.1 -0.4,-0.2 -0.1,-0.1 -0.2,-0.2 -0.3,-0.3 l -2.8,-2.8 c -0.7,1.9 -0.5,4.1 0.5,5.9 v 0 c 0,0 0,0 0,0 0.1,0.2 0.3,0.5 0.5,0.7 0.2,0.2 0.4,0.5 0.6,0.7 1.4,1.4 3.1,2 4.9,2 0.9,0 1.7,-0.2 2.5,-0.5 l 9.6,11 c 1.3,1.3 3.5,1.1 5,-0.4 1.5,-1.5 1.8,-3.6 0.5,-4.9 z" /></g></g></g><path
   id="path2524"
   d="m 33.048358,34.638518 c 0,2.869454 1.568566,5.579565 1.283129,8.515393 -0.485373,4.992238 -3.327503,9.282597 -4.89922,13.99791 -0.612985,1.839091 -1.335737,3.705246 -1.73024,5.599163 -0.12062,0.578815 -0.374091,1.595878 0.116646,2.060843 0.564109,0.534486 1.503709,0.405472 1.846887,-0.311104 0.341313,-0.712611 0.412469,-1.578381 0.622085,-2.332985 0.460177,-1.656302 1.069895,-3.277144 1.633072,-4.899268 1.337254,-3.851175 3.634287,-7.412593 4.471588,-11.431625 0.760079,-3.648556 0.01575,-7.778289 -1.244285,-11.198327 L 53.461769,34.40522 c -0.02159,0.272725 -0.08002,0.459131 -0.213816,0.699894 -0.14686,0.264211 -0.387039,0.885252 -0.719369,0.952674 -0.804871,0.163309 -1.695363,-1.143396 -2.527413,-0.116647 -0.690791,0.852589 0.427749,1.359197 0.427749,1.963557 0,0.295005 -0.434515,0.439533 -0.524917,0.699895 -0.157358,0.453065 0.66571,0.921296 0.991508,1.049843 -0.36884,0.737806 -0.933184,1.727225 -0.933184,2.566283 0,0.421338 0.280538,1.047394 0.816536,0.836026 0.945666,-0.373045 0.867512,-1.846792 1.535905,-2.469115 0.318682,-0.296756 1.389395,-0.149079 1.846889,-0.233298 l -0.116646,-0.933194 c 0.952898,0.401156 2.464073,-0.09576 1.866368,-1.399792 -0.284153,-0.61999 -1.155749,-0.947658 -1.749721,-1.166492 l 1.516425,-2.27466 2.332961,0.05832 7.115532,0.466596 c -1.344952,3.650538 -2.298666,7.723696 -1.47758,11.664925 0.85153,4.087039 3.196156,7.901936 4.704883,11.781573 0.739899,1.902665 1.171613,3.9011 1.788565,5.832462 0.251027,0.785982 0.562826,1.809229 1.633072,1.477596 0.763928,-0.236798 0.727534,-1.047161 0.699889,-1.710894 -0.06626,-1.591562 -0.85923,-3.518842 -1.399776,-5.015918 -1.752755,-4.853658 -4.862826,-9.641293 -5.365811,-14.814453 -0.164474,-1.692115 0.09764,-3.501228 0.505436,-5.132568 0.336062,-1.344266 0.921985,-2.507841 0.427747,-3.849424 1.447369,0 3.958219,0.516405 4.76309,-1.049844 0.658712,-1.281742 0.369425,-3.256928 0.369425,-4.665969 0,-0.52148 0.132865,-1.251343 -0.01947,-1.749739 -0.141028,-0.461861 -0.679242,-0.790567 -1.147,-0.816545 -0.621619,-0.03452 -1.100692,0.457661 -1.166482,1.049844 -0.18337,1.649817 -0.116646,3.347996 -0.116646,5.015916 l -12.481347,-0.81654 c 0.663961,-1.802055 1.997715,-3.429173 2.896722,-5.132566 0.304218,-0.576259 0.878709,-1.55847 0.136134,-2.060808 -0.718203,-0.485879 -1.344019,0.733338 -1.613593,1.244262 -0.767544,1.454302 -1.58618,2.902829 -2.430246,4.316024 -0.266075,0.445588 -0.513485,1.195304 -1.088676,1.28314 -3.774965,0.576715 -7.746015,-0.253012 -11.548159,0.116647 -2.196599,0.213585 -4.450006,-0.09717 -6.64894,0.116647 -1.669584,0.162377 -3.564998,0.303755 -5.249162,0.116647 -1.260615,-0.140094 -0.583708,-3.268594 -0.777693,-4.199372 -0.157826,-0.757602 -0.679358,-1.451292 -1.555268,-1.049844 -0.7406,0.339437 -0.699889,1.172372 -0.699889,1.866388 0,1.5205 -0.341662,4.1316 0.933184,5.210373 0.970162,0.82086 2.667741,0.505441 3.849387,0.505441 m 24.846037,20.296966 c -0.427282,0.168675 -1.025919,0.60891 -0.894341,1.166493 0.0581,0.245664 0.349711,0.420754 0.252777,0.699895 -0.245078,0.705728 -1.026503,1.514225 0.05832,2.080207 0.854447,0.445834 1.652086,-0.395908 2.449609,-0.563765 l 1.594228,2.566283 3.421639,5.482514 c -5.763347,0 -11.715549,0.912081 -17.49721,0.349948 -2.992489,-0.290923 -6.217692,-0.466597 -9.215197,-0.466597 0.515467,-2.448234 2.720582,-4.754858 2.916202,-7.232253 0.703154,0.148028 1.337719,0.667934 2.099665,0.583245 1.590262,-0.176723 0.584873,-1.508856 0.427747,-2.216334 -0.07337,-0.330118 0.348195,-0.556884 0.233297,-0.933194 -0.137177,-0.448751 -0.669559,-0.537053 -0.836016,-0.933194 -0.272374,-0.647986 1.727208,-3.041163 0.174972,-3.266179 -1.267498,-0.183723 -1.133937,1.947575 -1.769201,2.546802 -0.407569,0.384476 -1.324889,0.05342 -1.846889,0.369428 l 0.233296,0.699895 h -0.933185 c -1.829975,0.02544 -0.81782,1.846208 0.116646,2.352467 0.255577,0.138347 0.596422,0.339331 0.544397,0.680414 -0.257442,1.685233 -1.593995,3.66232 -2.255273,5.249217 -0.231197,0.555016 -0.418184,1.562983 -0.874861,1.963557 -0.422032,0.37036 -1.67285,-0.04619 -2.196832,-0.09717 -2.298668,-0.223501 -4.788987,-0.725092 -7.115532,-0.466598 -2.680644,0.297806 -1.86637,4.726977 -1.86637,6.532358 0,0.864485 -0.330697,2.183908 0.699888,2.527441 1.240902,0.413634 1.279747,-0.660126 1.438621,-1.477604 0.230497,-1.185383 0.07781,-2.521601 0.07781,-3.73277 0,-0.441284 -0.112799,-1.159027 0.252777,-1.49696 0.258842,-0.239363 0.815719,-0.02403 1.147001,-0.01947 1.122153,0.01563 2.266471,0.241463 3.382793,0.349947 0.607387,0.05903 2.487753,-0.117464 2.896722,0.369429 0.287537,0.342131 -0.496921,1.605677 -0.660929,1.963555 -0.686123,1.497078 -2.215496,3.890022 -1.419257,5.482517 1.870802,-0.689277 2.469324,-3.903084 3.246666,-5.599165 0.2088,-0.455515 0.37584,-1.432569 0.836017,-1.691414 0.593622,-0.333968 1.817144,-0.0031 2.44961,0.05832 1.377613,0.133908 2.821833,0.175906 4.199329,0.233298 6.012392,0.250561 12.327018,0.34878 18.313747,-0.233298 0.975761,-0.09483 3.331002,-0.375844 4.19933,0.05832 1.165548,0.582781 1.979751,2.853008 2.682906,3.907747 0.444662,0.667116 1.756369,3.518843 2.799553,2.974558 0.880693,-0.459484 0.184071,-1.369113 -0.155492,-1.924708 -1.051815,-1.721047 -2.157523,-3.438707 -3.227301,-5.13257 1.011221,-0.02659 2.015211,-0.233299 3.032848,-0.233299 0.301303,0 0.797057,-0.09728 1.030353,0.136136 0.277623,0.277507 0.136134,1.016248 0.136134,1.380311 0,1.099651 -0.517918,5.603359 1.749721,4.549318 0.650896,-0.302472 0.691023,-1.231931 0.699889,-1.866387 0.02309,-1.658752 0.376307,-4.223402 -0.680409,-5.599163 -1.193542,-1.553767 -4.162703,-0.816544 -5.851883,-0.816544 -0.50392,0 -1.319523,0.155492 -1.749721,-0.155494 -0.54148,-0.391592 -0.865179,-1.270778 -1.205325,-1.827544 -0.986025,-1.613375 -2.022677,-3.209021 -3.07181,-4.782619 -0.242628,-0.363944 -1.31719,-1.637056 -1.224805,-2.060842 0.15666,-0.717976 1.76197,-0.602026 1.61371,-1.788583 -0.13123,-1.04961 -1.010173,-1.049843 -1.827525,-1.049843 l 0.116646,-0.816545 c -0.489688,0 -1.16053,0.286724 -1.633072,0.136136 -0.711903,-0.227 -0.916971,-1.639272 -1.516425,-2.099688 -1.497412,-1.150277 -1.055315,1.186675 -0.661045,1.846909 0.250443,0.419353 0.494122,0.830076 0.661045,1.28314 m -8.165365,3.888271 c -2.562991,0.53402 -1.909061,4.504294 0.699889,3.888386 2.365272,-0.558516 1.615459,-4.37073 -0.699889,-3.888386 z"
   style="fill:#ffffff;stroke:none;stroke-width:0.116649" /></svg>
